<?xml version="1.0" encoding="UTF-8"?>
<svg width="17px" height="17px" viewBox="0 0 17 17" version="1.1" xmlns="http://www.w3.org/2000/svg" xmlns:xlink="http://www.w3.org/1999/xlink">
    <!-- Generator: Sketch 59.1 (86144) - https://sketch.com -->
    <title>piliang</title>
    <desc>Created with Sketch.</desc>
    <g id="页面1" stroke="none" stroke-width="1" fill="none" fill-rule="evenodd">
        <g id="甘特图（1）" transform="translate(-387.000000, -177.000000)" fill="#2161FD" fill-rule="nonzero" stroke="#2161FD" stroke-width="0.75">
            <g id="piliang" transform="translate(388.000000, 178.000000)">
                <path d="M12.3492647,12.3245721 C12.5863971,12.0880196 12.7169118,11.7726161 12.7113971,11.4370416 L12.7113971,7.7603912 C12.7113971,7.48716381 12.4963235,7.27261614 12.2224265,7.27261614 C11.9485294,7.27261614 11.7334559,7.48716381 11.7334559,7.7603912 L11.7334559,11.4443765 C11.7334559,11.5984108 11.6121324,11.7194377 11.4577206,11.7194377 L1.25551471,11.7194377 C1.10110294,11.7194377 0.979779412,11.5984108 0.979779412,11.4443765 L0.979779412,1.25794621 C0.979779412,1.10391198 1.10110294,0.982885086 1.25551471,0.982885086 L9.30330882,0.982885086 C9.57720588,0.982885086 9.79227941,0.768337408 9.79227941,0.495110024 C9.79227941,0.221882641 9.57720588,0.00733496333 9.30330882,0.00733496333 L1.25551471,0.00733496333 C0.564338235,0.00733496333 0.00183823529,0.568459658 0.00183823529,1.25794621 L0.00183823529,11.4352078 C0.00183823529,12.1246944 0.564338235,12.6858191 1.25551471,12.6858191 L11.4577206,12.6858191 C11.7959559,12.6913203 12.1121324,12.5629584 12.3492647,12.3245721 Z" id="路径"></path>
                <path d="M14.8639706,6.27322738 C14.7720588,6.1797066 14.6488971,6.12836186 14.5165441,6.12836186 C14.2426471,6.12836186 14.0275735,6.34290954 14.0275735,6.61613692 L14.0275735,13.7420538 C14.0275735,13.896088 13.90625,14.0171149 13.7518382,14.0171149 L3.97610294,14.0171149 C3.70220588,14.0171149 3.48713235,14.2316626 3.48713235,14.50489 C3.48713235,14.7781174 3.70220588,14.992665 3.97610294,14.992665 L13.7610294,14.992665 C14.1011029,14.992665 14.4172794,14.858802 14.6544118,14.6185819 C14.8841912,14.3838631 15.0055147,14.0776284 14.9981618,13.7530562 L14.9981618,6.61430318 C15.0018382,6.48594132 14.9540441,6.36491443 14.8639706,6.27322738 Z" id="形状"></path>
                <path d="M7.57720588,7.6393643 C7.52941176,7.66870416 7.46875,7.70537897 7.38970588,7.70537897 C7.31801471,7.70537897 7.25367647,7.68154034 7.19301471,7.63386308 L7.18566176,7.62652812 L4.29227941,4.73838631 C4.19852941,4.64486553 4.07352941,4.59168704 3.94852941,4.59168704 C3.81985294,4.59168704 3.68933824,4.64669927 3.60845588,4.73471883 L3.60661765,4.73655257 C3.41544118,4.92726161 3.41544118,5.23166259 3.60845588,5.4297066 L6.49264706,8.31601467 C6.74080882,8.55440098 7.05698529,8.68826406 7.38235294,8.68826406 L7.40808824,8.68826406 C7.75551471,8.67909535 8.07169118,8.54339853 8.29779412,8.30134474 L14.5661765,1.70171149 C14.6525735,1.61552567 14.7003676,1.49816626 14.6985805,1.37163814 C14.6966912,1.23594132 14.6397059,1.10574572 14.5404412,1.0103912 C14.4522059,0.922371638 14.3345588,0.874694377 14.2077206,0.876477122 C14.0735294,0.878361858 13.9411765,0.935207824 13.8455882,1.03422983 L7.58823529,7.63386308 L7.57720588,7.6393643 L7.57720588,7.6393643 Z" id="路径"></path>
            </g>
        </g>
    </g>
</svg>