<?xml version="1.0" encoding="UTF-8"?>
<svg width="1491px" height="234px" viewBox="0 0 1491 234" version="1.1" xmlns="http://www.w3.org/2000/svg" xmlns:xlink="http://www.w3.org/1999/xlink">
    <!-- Generator: Sketch 50 (54983) - http://www.bohemiancoding.com/sketch -->
    <title>Group 4</title>
    <desc>Created with Sketch.</desc>
    <defs>
        <rect id="path-1" x="0" y="0" width="1582" height="235"></rect>
    </defs>
    <g id="PRD" stroke="none" stroke-width="1" fill="none" fill-rule="evenodd">
        <g id="登录" transform="translate(-207.000000, -790.000000)">
            <g id="Group-2" transform="translate(169.000000, 90.000000)">
                <g id="Group-4" transform="translate(0.000000, 699.000000)">
                    <mask id="mask-2" fill="white">
                        <use xlink:href="#path-1"></use>
                    </mask>
                    <g id="hero_Bg"></g>
                    <g id="pyramid" mask="url(#mask-2)" fill="#ECECEC">
                        <g transform="translate(438.000000, 1.000000)">
                            <polygon id="Triangle-1-Copy-4" points="242.841753 0 409 234 88 234"></polygon>
                            <polygon id="Triangle-1-Copy-6" opacity="0.588560268" points="243 0 89.0422076 235 0 234.999989"></polygon>
                        </g>
                    </g>
                    <g id="pyramid" mask="url(#mask-2)" fill="#ECECEC">
                        <g transform="translate(37.000000, 70.000000)">
                            <polygon id="Triangle-1-Copy-4" points="210.582085 0 355 166 76 166"></polygon>
                            <polygon id="Triangle-1-Copy-6" opacity="0.588560268" points="211 1 77.4053894 166 0 165.999992"></polygon>
                        </g>
                    </g>
                    <g id="pyramid-copy" mask="url(#mask-2)" fill="#ECECEC">
                        <g transform="translate(1246.000000, 51.000000)">
                            <polygon id="Triangle-1-Copy-4" points="167.569193 0 283 185 60 185"></polygon>
                            <polygon id="Triangle-1-Copy-6" opacity="0.588560268" points="168 1 61.5519882 185 0 184.999991"></polygon>
                        </g>
                    </g>
                    <path d="M1127.04662,182.340769 C1130.62308,178.422957 1129.8759,171.112635 1137.33557,171.070009 C1144.79523,171.027383 1153.56719,186.67857 1157.4446,190.289225 C1159.14435,191.872648 1159.54733,193.247956 1158.17177,195.11973 C1157.14236,196.518858 1155.93342,204.803306 1155.38707,204.146367 C1154.7206,204.710532 1153.79064,205.14682 1153.4277,205.857667 C1148.78696,214.915647 1144.13975,223.973627 1139.70437,233.126889 C1138.44764,235.720793 1136.85896,236.462984 1133.37421,235.280745 C1139.23423,233.424016 1137.91679,229.145139 1137.95037,225.370249 C1137.99687,220.289004 1137.962,215.206506 1137.962,209.961026 L1114.9546,209.961026 L1114.9546,235.636795 L1108.69418,235.636795 C1113.21093,233.718635 1111.5848,230.650832 1110.60834,227.664519 C1108.30024,220.611205 1105.94822,213.56792 1103.84161,206.456936 C1103.1816,204.226604 1102.1199,203.098274 1099.74463,202.902697 C1092.68212,202.323488 1088.32166,197.041651 1083.0209,193.478637 C1081.9747,192.775311 1081.96437,190.450952 1081.70863,188.839948 C1080.87038,183.563126 1077.54966,180.595619 1072.14428,180.422608 C1070.2637,180.362431 1068.37795,180.331088 1066.50771,180.151809 C1065.98719,180.101661 1065.18381,179.641554 1065.0934,179.244131 C1064.93324,178.540805 1064.95132,177.30215 1065.36851,177.060186 C1067.05276,176.087315 1068.86747,175.253605 1070.73514,174.681918 C1071.81105,174.352195 1073.1104,174.78096 1074.25864,174.585383 C1076.28388,174.241869 1078.27037,173.682719 1081.14807,173.008229 C1083.20173,174.880002 1086.55991,177.181795 1088.8383,180.240822 C1090.97075,183.105526 1091.96012,186.772597 1093.563,190.331851 C1100.68621,184.164902 1109.00367,170.30229 1115.85614,171.027383 C1122.70861,171.752476 1123.07752,178.327676 1127.04662,182.340769 Z" id="camel" fill="#ECECEC" mask="url(#mask-2)"></path>
                    <path d="M970.62255,115.761644 C957.74979,129.275873 950.571714,144.652848 947.054342,162.84508 C935.910691,141.850026 936.732018,114.182414 962.82791,110.198278 C954.396229,109.773005 945.923596,109.449698 937.812711,112.856856 C929.813308,116.216761 921.945863,119.957173 913,123.988562 C919.802678,109.643682 925.533763,95.142123 940.212987,88.9769087 C948.658318,85.4304804 956.182217,89.0739007 962.914365,94.7914594 C966.042687,97.4475501 968.984447,100.362286 972.433564,103.553077 C964.099715,88.4596176 951.923149,79.5438074 937.380434,73.4009758 C948.644667,69.9565135 959.761017,67.8376097 970.592973,73.5327855 C977.388826,77.1065705 979.975663,84.0178778 980.207728,91.9811761 C980.291908,94.8586077 979.993865,97.7509612 979.818679,101.911673 C982.046044,100.297625 983.627268,99.1138243 985.24262,97.989711 C1001.05714,86.9848406 1016.05033,90.5785214 1025.29651,108.397707 C1029.52146,116.537581 1032.29713,125.580227 1035,134.943693 C1022.38661,124.038301 1009.04289,115.443311 993.003133,111.725281 C1002.77032,115.816357 1008.43315,123.055946 1008.72437,134.496037 C1008.98829,144.747353 1007.27056,154.449048 1002.05593,163.444442 C999.94687,146.729473 993.760756,132.498995 982.280383,121.367289 C981.124611,120.245662 978.872219,120.479438 976.849617,120.021834 C969.678366,158.61722 966.945919,196.67542 974.672305,235.909958 C968.932119,235.909958 963.494527,236.230778 958.134289,235.661261 C956.94439,235.534425 955.085598,232.221773 955.147026,230.446071 C955.756765,212.880557 956.318725,195.295148 957.66561,177.786834 C959.194506,157.903458 963.476325,138.609496 970.217575,120.011887 C970.524719,119.166315 970.413237,118.14168 970.62255,115.761644" id="palm_tree" fill="#ECECEC" mask="url(#mask-2)"></path>
                </g>
            </g>
        </g>
    </g>
</svg>