<svg xmlns="http://www.w3.org/2000/svg" xmlns:xlink="http://www.w3.org/1999/xlink" width="18" height="18" viewBox="0 0 18 18">
  <defs>
    <path id="56-a" d="M13,15 L13,5 L15,5 L15,15 L15,17 L3,17 L3,15 L3,5 L5,5 L5,15 L13,15 Z M6,2 L6,1 L12,1 L12,2 L16,2 L16,4 L2,4 L2,2 L6,2 Z M6,7 L8,7 L8,13 L6,13 L6,7 Z M10,7 L12,7 L12,13 L10,13 L10,7 Z"/>
  </defs>
  <g fill="none" fill-rule="evenodd">
    <mask id="56-b" fill="#fff">
      <use xlink:href="#56-a"/>
    </mask>
    <use fill="#A8A8A8" fill-rule="nonzero" xlink:href="#56-a"/>
    <g fill="#454C5C" mask="url(#56-b)">
      <rect width="18" height="18"/>
    </g>
  </g>
</svg>
