<?xml version="1.0" encoding="UTF-8"?>
<svg width="18px" height="19px" viewBox="0 0 18 19" version="1.1" xmlns="http://www.w3.org/2000/svg" xmlns:xlink="http://www.w3.org/1999/xlink">
    <!-- Generator: Sketch 54 (76480) - https://sketchapp.com -->
    <title>编组 4复制</title>
    <desc>Created with Sketch.</desc>
    <g id="页面1" stroke="none" stroke-width="1" fill="none" fill-rule="evenodd">
        <g id="项目详情-修改" transform="translate(-458.000000, -649.000000)">
            <g id="编组-4复制" transform="translate(458.000000, 649.000000)">
                <rect id="矩形" fill="#FE802F" x="0" y="3.35294118" width="18" height="15.6470588" rx="2.25"></rect>
                <path d="M1.125,6.70588235 L16.875,6.70588235 L16.875,15.6323529 C16.875,16.8749936 15.8676407,17.8823529 14.625,17.8823529 L3.375,17.8823529 C2.13235931,17.8823529 1.125,16.8749936 1.125,15.6323529 L1.125,6.70588235 Z" id="矩形" fill="#FFFFFF"></path>
                <path d="M4.5,0.298943335 C5.27665043,0.298943335 5.90625,0.928542905 5.90625,1.70519333 L5.90625,3.34558824 C5.90625,4.12223866 5.27665043,4.75183824 4.5,4.75183824 C3.72334957,4.75183824 3.09375,4.12223866 3.09375,3.34558824 L3.09375,1.70519333 C3.09375,0.928542905 3.72334957,0.298943335 4.5,0.298943335 Z" id="矩形" stroke="#FFFFFF" stroke-width="0.5625" fill="#FE802F"></path>
                <path d="M13.5,0.298943335 C14.2766504,0.298943335 14.90625,0.928542905 14.90625,1.70519333 L14.90625,3.34558824 C14.90625,4.12223866 14.2766504,4.75183824 13.5,4.75183824 C12.7233496,4.75183824 12.09375,4.12223866 12.09375,3.34558824 L12.09375,1.70519333 C12.09375,0.928542905 12.7233496,0.298943335 13.5,0.298943335 Z" id="矩形" stroke="#FFFFFF" stroke-width="0.5625" fill="#FE802F"></path>
            </g>
        </g>
    </g>
</svg>