<?xml version="1.0" encoding="UTF-8"?>
<svg width="18px" height="17px" viewBox="0 0 18 17" version="1.1" xmlns="http://www.w3.org/2000/svg" xmlns:xlink="http://www.w3.org/1999/xlink">
    <!-- Generator: Sketch 54 (76480) - https://sketchapp.com -->
    <title>编组 3</title>
    <desc>Created with Sketch.</desc>
    <g id="页面1" stroke="none" stroke-width="1" fill="none" fill-rule="evenodd">
        <g id="项目详情-修改" transform="translate(-539.000000, -606.000000)">
            <g id="编组-3" transform="translate(540.000000, 607.000000)">
                <rect id="矩形" fill="#2161FD" x="4" y="2.98666667" width="8" height="1.6" rx="0.8"></rect>
                <rect id="矩形复制-5" fill="#2161FD" x="4" y="5.97333333" width="8" height="1.6" rx="0.8"></rect>
                <path d="M16,0.756148154 C16,0.573629637 15.9142857,0.365037049 15.7714286,0.234666671 C15.6285714,0.104296294 15.4,0 15.2,0 L0.800000011,0 C0.34285715,-9.76996262e-17 0,0.338962965 0,0.756148154 L0,10.194963 C0,10.3774815 0.0857142874,10.5860741 0.228571438,10.7164445 C0.371428589,10.8468148 0.600000012,10.9511111 0.800000011,10.9511111 L15.2,10.9511111 C15.6571429,10.925037 16,10.6121481 16,10.194963 L16,0.756148154 Z" id="路径" stroke="#2161FD" stroke-width="1.6" fill-rule="nonzero"></path>
                <path d="M3.29411765,14.0088889 L12.7058824,14.0088889 C12.8823529,14.0088889 13,14.3288889 13,14.8088889 C13,15.2888889 12.8823529,15.6088889 12.7058824,15.6088889 L3.29411765,15.6088889 C3.11764706,15.6088889 3,15.2888889 3,14.8088889 C3,14.3288889 3.11764706,14.0088889 3.29411765,14.0088889 Z" id="路径" fill="#2161FD" fill-rule="nonzero"></path>
            </g>
        </g>
    </g>
</svg>