<svg xmlns="http://www.w3.org/2000/svg" width="24" height="19" viewBox="0 0 24 19">
  <g fill="none" fill-rule="evenodd">
    <rect width="24" height="19" fill="#FFF" fill-opacity=".013" rx="2"/>
    <path fill="#98A2B3" d="M6.5,11 C5.67157288,11 5,10.3284271 5,9.5 C5,8.67157288 5.67157288,8 6.5,8 C7.32842712,8 8,8.67157288 8,9.5 C8,10.3284271 7.32842712,11 6.5,11 Z M12.5,11 C11.6715729,11 11,10.3284271 11,9.5 C11,8.67157288 11.6715729,8 12.5,8 C13.3284271,8 14,8.67157288 14,9.5 C14,10.3284271 13.3284271,11 12.5,11 Z M18.5,11 C17.6715729,11 17,10.3284271 17,9.5 C17,8.67157288 17.6715729,8 18.5,8 C19.3284271,8 20,8.67157288 20,9.5 C20,10.3284271 19.3284271,11 18.5,11 Z"/>
  </g>
</svg>
