<?xml version="1.0" encoding="UTF-8"?>
<svg width="30px" height="30px" viewBox="0 0 30 30" version="1.1" xmlns="http://www.w3.org/2000/svg" xmlns:xlink="http://www.w3.org/1999/xlink">
    <!-- Generator: Sketch 52.2 (67145) - http://www.bohemiancoding.com/sketch -->
    <title>分组</title>
    <desc>Created with Sketch.</desc>
    <defs>
        <path d="M8,6 L8,8 L2,8 L2,6 L4.58578644,6 L2.05025253,3.46446609 L3.46446609,2.05025253 L6,4.58578644 L6,2 L8,2 L8,6 Z M8,12 L8,16 L6,16 L6,13.4142136 L3.46446609,15.9497475 L2.05025253,14.5355339 L4.58578644,12 L2,12 L2,10 L8,10 L8,12 Z M10,6 L10,2 L12,2 L12,4.58578644 L14.5355339,2.05025253 L15.9497475,3.46446609 L13.4142136,6 L16,6 L16,8 L10,8 L10,6 Z M10,12 L10,10 L16,10 L16,12 L13.4142136,12 L15.9497475,14.5355339 L14.5355339,15.9497475 L12,13.4142136 L12,16 L10,16 L10,12 Z" id="path-1"></path>
    </defs>
    <g id="Page-1" stroke="none" stroke-width="1" fill="none" fill-rule="evenodd">
        <g id="画板" transform="translate(-271.000000, -114.000000)">
            <g id="分组-6-copy" transform="translate(103.000000, 114.000000)">
                <g id="分组" transform="translate(168.000000, 0.000000)">
                    <rect id="矩形" fill="#DCE9F8" fill-rule="nonzero" x="0" y="0" width="30" height="30" rx="2"></rect>
                    <g id="Icon/36-1" transform="translate(6.000000, 6.000000)">
                        <mask id="mask-2" fill="white">
                            <use xlink:href="#path-1"></use>
                        </mask>
                        <use id="Mask" fill="#D8D8D8" fill-rule="nonzero" xlink:href="#path-1"></use>
                        <g id="Icon-Colour/#2161FD" mask="url(#mask-2)" fill="#2161FD" fill-rule="nonzero">
                            <rect id="矩形" x="0" y="0" width="18" height="18"></rect>
                        </g>
                    </g>
                </g>
            </g>
        </g>
    </g>
</svg>