<?xml version="1.0" encoding="UTF-8"?>
<svg width="30px" height="30px" viewBox="0 0 30 30" version="1.1" xmlns="http://www.w3.org/2000/svg" xmlns:xlink="http://www.w3.org/1999/xlink">
    <!-- Generator: Sketch 52.2 (67145) - http://www.bohemiancoding.com/sketch -->
    <title>分组 6</title>
    <desc>Created with Sketch.</desc>
    <g id="Page-1" stroke="none" stroke-width="1" fill="none" fill-rule="evenodd">
        <g id="项目甘特图" transform="translate(-1106.000000, -83.000000)" fill-rule="nonzero">
            <g id="icon" transform="translate(1050.000000, 83.000000)">
                <g id="分组-6" transform="translate(56.000000, 0.000000)">
                    <rect id="矩形-copy-4" fill="#F2F2F2" x="0" y="0" width="30" height="30" rx="2"></rect>
                    <g id="分组-7-copy" transform="translate(6.000000, 6.000000)" fill="#333333">
                        <path d="M10,14.9170416 L10,16.9381062 C9.67240576,16.9789567 9.33866035,17 9,17 C4.581722,17 1,13.418278 1,9 C1,4.581722 4.581722,1 9,1 C13.418278,1 17,4.581722 17,9 C17,9.33866035 16.9789567,9.67240576 16.9381062,10 L14.9170416,10 C14.9716012,9.67479153 15,9.34071221 15,9 C15,5.6862915 12.3137085,3 9,3 C5.6862915,3 3,5.6862915 3,9 C3,12.3137085 5.6862915,15 9,15 C9.34071221,15 9.67479153,14.9716012 10,14.9170416 Z M15,13 L17,13 L17,15 L15,15 L15,17 L13,17 L13,15 L11,15 L11,13 L13,13 L13,11 L15,11 L15,13 Z M8.79289322,9.91421356 L12.3284271,6.37867966 L13.7426407,7.79289322 L10.2071068,11.3284271 L8.79289322,12.7426407 L5.25735931,9.20710678 L6.67157288,7.79289322 L8.79289322,9.91421356 Z" id="合并形状"></path>
                    </g>
                </g>
            </g>
        </g>
    </g>
</svg>