<?xml version="1.0" encoding="UTF-8"?>
<svg width="14px" height="14px" viewBox="0 0 14 14" version="1.1" xmlns="http://www.w3.org/2000/svg" xmlns:xlink="http://www.w3.org/1999/xlink">
    <!-- Generator: Sketch 54 (76480) - https://sketchapp.com -->
    <title>gantanhao</title>
    <desc>Created with Sketch.</desc>
    <g id="页面1" stroke="none" stroke-width="1" fill="none" fill-rule="evenodd">
        <g id="所有项目-进行中项目" transform="translate(-370.000000, -496.000000)" fill-rule="nonzero">
            <g id="分组-2">
                <g id="gantanhao" transform="translate(370.000000, 496.000000)">
                    <path d="M6.983032,0.875 C3.60816797,0.875 0.875,3.60817301 0.875,6.983032 C0.875,10.357919 3.60815863,13.0910827 6.983032,13.0910827 C10.3579215,13.0910827 13.0910827,10.3579215 13.0910827,6.98302777 C13.091099,3.60817567 10.3579183,0.875 6.983032,0.875 Z" id="路径" stroke="#F7414A" stroke-width="1.75"></path>
                    <g id="编组-2" transform="translate(6.125000, 3.500000)" fill="#F7414A">
                        <path d="M1.75,6.12501817 C1.75,6.60922577 1.35539557,7 0.875009173,7 C0.394586081,7 0,6.60922577 0,6.12501817 C0,5.6407924 0.394604426,5.25 0.875009173,5.25 C1.36396276,5.25 1.75,5.64077423 1.75,6.12501817 Z" id="路径"></path>
                        <path d="M1.75,0.310275217 L1.75,4.06471151 C1.75,4.23849483 1.56218639,4.375 1.32314758,4.375 L0.426815911,4.375 C0.18779535,4.375 0,4.23849483 0,4.06471151 L0,0.310275217 C0,0.13650517 0.18779535,0 0.426815911,0 L1.32314758,0 C1.56218639,0 1.75,0.13650517 1.75,0.310275217 Z" id="路径"></path>
                    </g>
                </g>
            </g>
        </g>
    </g>
</svg>