<?xml version="1.0" encoding="UTF-8"?>
<svg width="30px" height="30px" viewBox="0 0 30 30" version="1.1" xmlns="http://www.w3.org/2000/svg" xmlns:xlink="http://www.w3.org/1999/xlink">
    <!-- Generator: Sketch 52.2 (67145) - http://www.bohemiancoding.com/sketch -->
    <title>分组</title>
    <desc>Created with Sketch.</desc>
    <defs>
        <path d="M4,12.5857864 L6.53553391,10.0502525 L7.94974747,11.4644661 L5.41421356,14 L8,14 L8,16 L2,16 L2,10 L4,10 L4,12.5857864 Z M14,12.5857864 L14,10 L16,10 L16,16 L10,16 L10,14 L12.5857864,14 L10.0502525,11.4644661 L11.4644661,10.0502525 L14,12.5857864 Z M14,5.41421356 L11.4644661,7.94974747 L10.0502525,6.53553391 L12.5857864,4 L10,4 L10,2 L16,2 L16,8 L14,8 L14,5.41421356 Z M4,5.41421356 L4,8 L2,8 L2,2 L8,2 L8,4 L5.41421356,4 L7.65685425,6.24264069 L6.24264069,7.65685425 L4,5.41421356 Z" id="path-1"></path>
    </defs>
    <g id="Page-1" stroke="none" stroke-width="1" fill="none" fill-rule="evenodd">
        <g id="画板" transform="translate(-271.000000, -161.000000)">
            <g id="分组-6" transform="translate(103.000000, 161.000000)">
                <g id="分组" transform="translate(168.000000, 0.000000)">
                    <rect id="矩形" fill="#F2F2F2" fill-rule="nonzero" x="0" y="0" width="30" height="30" rx="2"></rect>
                    <g id="Icon/34-1" transform="translate(6.000000, 6.000000)">
                        <mask id="mask-2" fill="white">
                            <use xlink:href="#path-1"></use>
                        </mask>
                        <use id="Mask" fill="#333333" fill-rule="nonzero" xlink:href="#path-1"></use>
                        <g id="Icon-Colour/#333333" mask="url(#mask-2)" fill="#333333" fill-rule="nonzero">
                            <rect id="矩形" x="0" y="0" width="18" height="18"></rect>
                        </g>
                    </g>
                </g>
            </g>
        </g>
    </g>
</svg>