<?xml version="1.0" encoding="UTF-8"?>
<svg width="30px" height="30px" viewBox="0 0 30 30" version="1.1" xmlns="http://www.w3.org/2000/svg" xmlns:xlink="http://www.w3.org/1999/xlink">
    <!-- Generator: Sketch 52.2 (67145) - http://www.bohemiancoding.com/sketch -->
    <title>分组 2</title>
    <desc>Created with Sketch.</desc>
    <defs>
        <path d="M8,4 L8,6 L8,8 L3,8 L2,8 L2,6 L2,4 L2,2 L3,2 L8,2 L8,4 Z M6,4 L4,4 L4,6 L6,6 L6,4 Z M16,4 L16,6 L16,8 L11,8 L10,8 L10,6 L10,4 L10,2 L11,2 L16,2 L16,4 Z M14,4 L12,4 L12,6 L14,6 L14,4 Z M2,12 L2,10 L8,10 L8,12 L8,14 L8,16 L2,16 L2,14 L2,12 Z M4,12 L4,14 L6,14 L6,12 L4,12 Z M12,12 L12,10 L14,10 L14,12 L16,12 L16,14 L14,14 L14,16 L12,16 L12,14 L10,14 L10,12 L12,12 Z" id="path-1"></path>
    </defs>
    <g id="Page-1" stroke="none" stroke-width="1" fill="none" fill-rule="evenodd">
        <g id="画板" transform="translate(-103.000000, -161.000000)">
            <g id="分组-6" transform="translate(103.000000, 161.000000)">
                <g id="分组-2">
                    <rect id="矩形-copy-3" fill="#F2F2F2" fill-rule="nonzero" x="0" y="0" width="30" height="30" rx="2"></rect>
                    <g id="Icon/35-1" transform="translate(6.000000, 6.000000)">
                        <mask id="mask-2" fill="white">
                            <use xlink:href="#path-1"></use>
                        </mask>
                        <use id="Mask" fill="#333333" fill-rule="evenodd" xlink:href="#path-1"></use>
                        <g id="Icon-Colour/#333333" mask="url(#mask-2)" fill="#333333" fill-rule="nonzero">
                            <rect id="矩形" x="0" y="0" width="18" height="18"></rect>
                        </g>
                    </g>
                </g>
            </g>
        </g>
    </g>
</svg>