<?xml version="1.0" encoding="UTF-8"?>
<svg width="30px" height="30px" viewBox="0 0 30 30" version="1.1" xmlns="http://www.w3.org/2000/svg" xmlns:xlink="http://www.w3.org/1999/xlink">
    <!-- Generator: Sketch 52.2 (67145) - http://www.bohemiancoding.com/sketch -->
    <title>分组 5</title>
    <desc>Created with Sketch.</desc>
    <defs>
        <path d="M2.04463124,5.04463124 C3.42140456,2.62883454 6.02048494,1 9,1 C13.418278,1 17,4.581722 17,9 C17,13.418278 13.418278,17 9,17 C4.92038235,17 1.55399184,13.9463116 1.06189375,10 L3.08295844,10 C3.55903653,12.8377133 6.02700371,15 9,15 C12.3137085,15 15,12.3137085 15,9 C15,5.6862915 12.3137085,3 9,3 C6.56669922,3 4.47171189,4.44849209 3.53025713,6.53025713 L5,8 L1,8 L1,4 L2.04463124,5.04463124 Z M12.7071068,11.2928932 L11.2928932,12.7071068 L8,9.41421356 L8,5 L10,5 L10,8.58578644 L12.7071068,11.2928932 Z" id="path-1"></path>
    </defs>
    <g id="Page-1" stroke="none" stroke-width="1" fill="none" fill-rule="evenodd">
        <g id="画板" transform="translate(-229.000000, -114.000000)">
            <g id="分组-6-copy" transform="translate(103.000000, 114.000000)">
                <g id="分组-5" transform="translate(126.000000, 0.000000)">
                    <rect id="矩形" fill="#DCE9F8" fill-rule="nonzero" x="0" y="0" width="30" height="30" rx="2"></rect>
                    <g id="Icon/33-1" transform="translate(6.000000, 6.000000)">
                        <mask id="mask-2" fill="white">
                            <use xlink:href="#path-1"></use>
                        </mask>
                        <use id="Mask" fill="#FFFFFF" fill-rule="nonzero" xlink:href="#path-1"></use>
                        <g id="Icon-Colour/#2161FD" mask="url(#mask-2)" fill="#2161FD" fill-rule="nonzero">
                            <rect id="矩形" x="0" y="0" width="18" height="18"></rect>
                        </g>
                    </g>
                </g>
            </g>
        </g>
    </g>
</svg>