<?xml version="1.0" encoding="UTF-8"?>
<svg width="166px" height="80px" viewBox="0 0 166 80" version="1.1" xmlns="http://www.w3.org/2000/svg" xmlns:xlink="http://www.w3.org/1999/xlink">
    <!-- Generator: Sketch 50.2 (55047) - http://www.bohemiancoding.com/sketch -->
    <title>logo@2x</title>
    <desc>Created with Sketch.</desc>
    <defs>
        <rect id="path-1" x="0" y="0" width="134" height="48" rx="4"></rect>
        <filter x="-18.7%" y="-47.9%" width="137.3%" height="204.2%" filterUnits="objectBoundingBox" id="filter-2">
            <feOffset dx="0" dy="2" in="SourceAlpha" result="shadowOffsetOuter1"></feOffset>
            <feGaussianBlur stdDeviation="8" in="shadowOffsetOuter1" result="shadowBlurOuter1"></feGaussianBlur>
            <feComposite in="shadowBlurOuter1" in2="SourceAlpha" operator="out" result="shadowBlurOuter1"></feComposite>
            <feColorMatrix values="0 0 0 0 0.129411765   0 0 0 0 0.380392157   0 0 0 0 0.992156863  0 0 0 0.29540308 0" type="matrix" in="shadowBlurOuter1"></feColorMatrix>
        </filter>
    </defs>
    <g id="Page-1" stroke="none" stroke-width="1" fill="none" fill-rule="evenodd">
        <g id="原型" transform="translate(-1266.000000, -696.000000)">
            <g id="logo" transform="translate(1282.000000, 710.000000)">
                <g id="Rectangle-4">
                    <use fill="black" fill-opacity="1" filter="url(#filter-2)" xlink:href="#path-1"></use>
                    <use fill-opacity="0.7" fill="#FF0F1D" fill-rule="evenodd" xlink:href="#path-1"></use>
                </g>
                <g id="XMLID_325_" stroke-linecap="round" stroke-linejoin="round" transform="translate(43.000000, 15.000000)" stroke="#FFFFFF">
                    <g id="XMLID_350_">
                        <path d="M9.10603175,0.0502164536 L9.10603175,7.21233763" id="XMLID_357_"></path>
                        <path d="M3.20634921,1.85800866 L3.20634921,7.16839829" id="XMLID_356_"></path>
                        <path d="M17.7367736,7.69935069 L0.101852932,7.69935069" id="XMLID_355_"></path>
                        <path d="M15.4558812,3.43722944 L9.40710585,3.43722944" id="XMLID_354_"></path>
                        <path d="M2.2178843,9.05584295 L2.2178843,15.6047619 C2.2178843,16.282684 2.77235537,16.8350649 3.4528426,16.8350649 L14.51076,16.8350649 C15.1912473,16.8350649 15.7457184,16.282684 15.7457184,15.6047619 L15.7457184,9.05584295" id="XMLID_353_"></path>
                        <path d="M9.10603223,7.97186146 C8.81619509,11.1794373 6.75446581,13.8095238 3.98841125,14.9645021" id="XMLID_352_"></path>
                        <path d="M13.8932809,15.171645 C12.2802741,13.15671 8.81482991,10.2378788 8.81482991,10.2378788" id="XMLID_351_"></path>
                    </g>
                    <g id="XMLID_342_" transform="translate(20.039683, 0.000000)">
                        <path d="M0.674186419,2.35714286 L6.76076662,2.35714286" id="XMLID_349_"></path>
                        <path d="M3.72377733,0.0125541125 L1.24755992,7.43831169 C1.07743811,7.95303033 1.46178738,8.49285714 2.00995764,8.49285714 L6.68515693,8.49285714" id="XMLID_348_"></path>
                        <path d="M4.00793651,4.83333333 L4.00793651,16.9606061" id="XMLID_347_"></path>
                        <path d="M0.00630080766,14.8703463 C2.48251822,14.3430736 4.42946778,13.6400433 7.11991266,12.4034632" id="XMLID_346_"></path>
                        <path d="M6.81747389,5.27272727 C8.45568385,3.85411255 10.6483649,1.66969697 11.6816974,0.495887446 C12.0030386,0.131818182 12.5197049,0.138095238 12.8347452,0.502164502 C14.1012076,1.96471861 16.9806766,4.90865801 17.6926679,5.26645022" id="XMLID_345_"></path>
                        <path d="M15.922141,7.30021645 C14.2398254,8.80043293 10.6861698,10.9974026 9.26848808,11.3928571" id="XMLID_344_"></path>
                        <path d="M9.19917916,5.44848485 L9.19917916,15.4478355 C9.19917916,16.1257576 9.75365024,16.6781386 10.4341375,16.6781386 L15.922141,16.6781386 C16.6026282,16.6781386 17.1570993,16.1257576 17.1570993,15.4478355 L17.1570993,12.5854978" id="XMLID_343_"></path>
                    </g>
                    <g id="XMLID_335_" transform="translate(40.079365, 0.000000)">
                        <path d="M13.6853543,6.36493507 L3.73007813,6.36493507 C3.09999737,6.36493507 2.58963195,5.85021645 2.58963195,5.22878788 L2.58963195,1.14242424 C2.58963195,0.514718615 3.10629817,0.00627705628 3.73007813,0.00627705628 L13.4585252,0.00627705628 C14.2146221,0.00627705628 14.8321012,0.621428571 14.8321012,1.37467533 L14.8321012,5.22878788 C14.8258004,5.85021645 14.3091342,6.36493507 13.6853543,6.36493507 Z" id="XMLID_341_"></path>
                        <path d="M2.58333114,3.14285714 L14.8258004,3.14285714" id="XMLID_340_"></path>
                        <path d="M8.36747261,9.35281388 C7.30893689,10.4512987 3.85609429,13.9350649 0.497763805,14.506277" id="XMLID_339_"></path>
                        <path d="M13.137184,9.35281388 C12.2550709,10.5831169 8.25405803,15.6863636 3.96320802,16.8350649" id="XMLID_338_"></path>
                        <path d="M3.83089106,8.95735932 L14.5989713,8.95735932 C15.2794586,8.95735932 15.8339297,9.50974027 15.8339297,10.1876623 L15.8339297,15.1277056 C15.8339297,15.8056277 15.2794586,16.3580086 14.5989713,16.3580086 L11.4611691,16.3580086" id="XMLID_337_"></path>
                        <path d="M0.056707269,11.3865801 C2.23678672,10.1060606 3.85609429,8.81926406 6.02357212,6.79805195" id="XMLID_336_"></path>
                    </g>
                    <g id="XMLID_330_" transform="translate(58.515873, 0.000000)">
                        <path d="M0.0441056536,4.99025974 C1.5626003,3.69090909 3.59146037,1.69480519 4.55548394,0.621428571 C4.8516219,0.288744589 5.33048328,0.295021645 5.62662124,0.627705628 C6.79857147,1.96471861 9.4701139,4.66385281 10.1253979,4.99025974" id="XMLID_334_"></path>
                        <path d="M3.6985741,11.1417749 L6.57174239,11.1417749 C7.25222962,11.1417749 7.80670069,10.589394 7.80670069,9.9114719 L7.80670069,6.52813852 C7.80670069,5.85021645 7.25222962,5.29783549 6.57174239,5.29783549 L3.06849333,5.29783549 C2.3880061,5.29783549 1.83353503,5.85021645 1.83353503,6.52813852 L1.83353503,15.6612554 C1.83353503,16.0755411 2.12967299,16.4270562 2.52032307,16.4584415 C3.42133856,16.5400433 5.94166163,16.5149351 7.6554813,16.4961039 C8.32966775,16.4898268 8.87783796,15.9437229 8.87783796,15.2658009 L8.87783796,13.4329004" id="XMLID_333_"></path>
                        <path d="M12.0238095,1.90822511 L12.0238095,13.2822511" id="XMLID_332_"></path>
                        <path d="M15.298361,0.00627705628 L15.298361,15.2909091 C15.298361,15.9688311 14.7438899,16.5212121 14.0634027,16.5212121 L11.4548683,16.5212121" id="XMLID_331_"></path>
                    </g>
                </g>
                <g id="Group-6" transform="translate(16.000000, 12.000000)">
                    <path d="M12,23.5 C5.64872538,23.5 0.5,18.3512746 0.5,12 C0.5,5.64872538 5.64872538,0.5 12,0.5 C18.3512746,0.5 23.5,5.64872538 23.5,12 C23.5,18.3512746 18.3512746,23.5 12,23.5 Z M12,22.5 C17.7989899,22.5 22.5,17.7989899 22.5,12 C22.5,6.20101013 17.7989899,1.5 12,1.5 C6.20101013,1.5 1.5,6.20101013 1.5,12 C1.5,17.7989899 6.20101013,22.5 12,22.5 Z" id="Oval" fill="#FFFFFF" fill-rule="nonzero"></path>
                    <circle id="Oval" stroke="#FFFFFF" cx="12" cy="12" r="7"></circle>
                    <circle id="Oval" stroke="#FFFFFF" fill="#FFFFFF" fill-rule="nonzero" cx="12" cy="12" r="3"></circle>
                    <path d="M23,12 L19,12 C19,8.13400675 15.8659932,5 12,5 L12,1 C18.0751322,1 23,5.92486775 23,12 Z" id="Combined-Shape" stroke="#FFFFFF" fill="#FFFFFF"></path>
                </g>
            </g>
        </g>
    </g>
</svg>