<?xml version="1.0" encoding="UTF-8"?>
<svg width="32px" height="32px" viewBox="0 0 32 32" version="1.1" xmlns="http://www.w3.org/2000/svg" xmlns:xlink="http://www.w3.org/1999/xlink">
    <!-- Generator: Sketch 52.2 (67145) - http://www.bohemiancoding.com/sketch -->
    <title>åˆ†ç»„ 18</title>
    <desc>Created with Sketch.</desc>
    <defs>
        <linearGradient x1="92.5141188%" y1="22.1136432%" x2="4.23424221%" y2="89.0364494%" id="linearGradient-1">
            <stop stop-color="#FABE6C" offset="0%"></stop>
            <stop stop-color="#FF9356" offset="100%"></stop>
        </linearGradient>
    </defs>
    <g id="Page-1" stroke="none" stroke-width="1" fill="none" fill-rule="evenodd">
        <g id="ðŸ’»é¡¹ç›®è¯¦æƒ…" transform="translate(-1396.000000, -120.000000)" fill-rule="nonzero">
            <g id="åˆ†ç»„-8" transform="translate(1384.000000, 56.000000)">
                <g id="åˆ†ç»„-18" transform="translate(12.000000, 64.000000)">
                    <g id="åˆ†ç»„-16" fill="#F4F6F8">
                        <circle id="æ¤­åœ†å½¢-copy-2" cx="16" cy="16" r="16"></circle>
                    </g>
                    <g id="åˆ†ç»„-7-copy" transform="translate(7.000000, 7.000000)" fill="url(#linearGradient-1)">
                        <path d="M5.12399283,16 L2,16 L2,12.8760072 C1.36283707,11.7277574 1,10.4062513 1,9 C1,4.581722 4.581722,1 9,1 C13.418278,1 17,4.581722 17,9 C17,13.418278 13.418278,17 9,17 C7.59374873,17 6.27224261,16.6371629 5.12399283,16 Z M5,8 L5,10 L7,10 L7,8 L5,8 Z M8,8 L8,10 L10,10 L10,8 L8,8 Z M11,8 L11,10 L13,10 L13,8 L11,8 Z" id="åˆå¹¶å½¢çŠ¶"></path>
                    </g>
                </g>
            </g>
        </g>
    </g>
</svg>