<?xml version="1.0" encoding="UTF-8"?>
<svg width="14px" height="16px" viewBox="0 0 14 16" version="1.1" xmlns="http://www.w3.org/2000/svg" xmlns:xlink="http://www.w3.org/1999/xlink">
    <!-- Generator: Sketch 54 (76480) - https://sketchapp.com -->
    <title>形状</title>
    <desc>Created with Sketch.</desc>
    <g id="页面1" stroke="none" stroke-width="1" fill="none" fill-rule="evenodd">
        <g id="项目收款-添加部署信息多条" transform="translate(-731.000000, -388.000000)" fill="#2161FD" fill-rule="nonzero">
            <g id="项目详情" transform="translate(186.000000, 116.000000)">
                <path d="M557.407746,276.189147 L554.901396,273.60991 L556.153698,272.320292 C556.348251,272.115987 556.620537,272 556.905603,272 C557.190669,272 557.462955,272.115987 557.657508,272.320292 L558.660049,273.352158 C559.075736,273.779462 559.075736,274.472225 558.660049,274.900385 L557.406873,276.189147 L557.407746,276.189147 Z M550.125356,283.681948 L547.619879,281.102712 L554.434184,274.145967 L556.940535,276.725203 L550.12623,283.681948 L550.125356,283.681948 Z M545.605192,285.797059 L547.129962,281.605372 L549.615353,284.1632 L545.605192,285.797059 Z M556.861938,286.679069 C557.213002,286.679069 557.496822,286.970218 557.496822,287.331585 C557.496822,287.692096 557.213002,287.984957 556.861938,287.984957 L545.634884,287.984957 C545.28382,287.984957 545,287.692096 545,287.331585 C545,286.971074 545.28382,286.678213 545.634884,286.678213 L556.861938,286.678213 L556.861938,286.679069 Z" id="形状"></path>
            </g>
        </g>
    </g>
</svg>