<?xml version="1.0" encoding="UTF-8"?>
<svg width="18px" height="18px" viewBox="0 0 18 18" version="1.1" xmlns="http://www.w3.org/2000/svg" xmlns:xlink="http://www.w3.org/1999/xlink">
    <!-- Generator: Sketch 53.2 (72643) - https://sketchapp.com -->
    <title>Icon/Icon-00/61</title>
    <desc>Created with Sketch.</desc>
    <defs>
        <path d="M4,17 L2,17 L2,1 L4,1 L14,1 L16,1 L16,17 L14,17 L4,17 Z M4,15 L14,15 L14,3 L4,3 L4,15 Z M8,10 L8,13 L6,13 L6,7 L6,5 L12,5 L12,7 L12,9 L12,10 L8,10 Z M8,8 L10,8 L10,7 L8,7 L8,8 Z" id="path-1"></path>
    </defs>
    <g id="Icon/Icon-00/61" stroke="none" stroke-width="1" fill="none" fill-rule="evenodd">
        <mask id="mask-2" fill="white">
            <use xlink:href="#path-1"></use>
        </mask>
        <use id="Mask" fill="#333333" xlink:href="#path-1"></use>
        <g id="Colors/#212736" mask="url(#mask-2)" fill="#212736">
            <rect id="Colors/#454C5C" x="0" y="0" width="18" height="18"></rect>
        </g>
    </g>
</svg>