<?xml version="1.0" encoding="UTF-8"?>
<svg width="18px" height="18px" viewBox="0 0 18 18" version="1.1" xmlns="http://www.w3.org/2000/svg" xmlns:xlink="http://www.w3.org/1999/xlink">
    <!-- Generator: Sketch 53.2 (72643) - https://sketchapp.com -->
    <title>Icon/Icon-00/64</title>
    <desc>Created with Sketch.</desc>
    <defs>
        <path d="M14,8 L16,8 L16,10 L14,10 L14,11 L10,11 L10,10 L2,10 L2,8 L10,8 L10,7 L14,7 L14,8 Z M8,13 L16,13 L16,15 L8,15 L8,16 L4,16 L4,15 L2,15 L2,13 L4,13 L4,12 L8,12 L8,13 Z M8,3 L16,3 L16,5 L8,5 L8,6 L4,6 L4,5 L2,5 L2,3 L4,3 L4,2 L8,2 L8,3 Z" id="path-1"></path>
    </defs>
    <g id="Icon/Icon-00/64" stroke="none" stroke-width="1" fill="none" fill-rule="evenodd">
        <mask id="mask-2" fill="white">
            <use xlink:href="#path-1"></use>
        </mask>
        <use id="Mask" fill="#333333" transform="translate(9.000000, 9.000000) rotate(-270.000000) translate(-9.000000, -9.000000) " xlink:href="#path-1"></use>
        <g id="Colors/#212736" mask="url(#mask-2)" fill="#212736">
            <rect id="Colors/#454C5C" x="0" y="0" width="18" height="18"></rect>
        </g>
    </g>
</svg>