<?xml version="1.0" encoding="UTF-8"?>
<svg width="11px" height="12px" viewBox="0 0 11 12" version="1.1" xmlns="http://www.w3.org/2000/svg" xmlns:xlink="http://www.w3.org/1999/xlink">
    <!-- Generator: Sketch 54 (76480) - https://sketchapp.com -->
    <title>renwu</title>
    <desc>Created with Sketch.</desc>
    <g id="页面1" stroke="none" stroke-width="1" fill="none" fill-rule="evenodd">
        <g id="我的项目收款" transform="translate(-388.000000, -364.000000)" fill="#636C81" fill-rule="nonzero">
            <g id="renwu" transform="translate(388.000000, 364.000000)">
                <path d="M5.5218885,6.93256579 C7.40627147,6.93256579 8.93991258,5.37824507 8.93991258,3.46875 C8.93991258,1.55918832 7.40627147,0.00493421053 5.5218885,0.00493421053 C3.637637,0.00493421053 2.10386442,1.55918832 2.10386442,3.46875 C2.10386442,5.37824507 3.637637,6.93256579 5.5218885,6.93256579 Z M7.62528793,7.46546053 C7.05566107,7.95385855 6.31066329,8.22030592 5.5218885,8.22030592 C4.68933671,8.22030592 3.94433893,7.90949507 3.37471207,7.46546053 C1.4027751,8.13157895 0.000464987606,9.73026316 0.000464987606,11.550898 C0.000464987606,11.6841217 0.000464987606,11.8618421 0.0443077195,11.9950658 L10.955758,11.9950658 C10.955758,11.8618421 10.999535,11.6841217 10.999535,11.550898 C10.955758,9.73026316 9.5972249,8.13157895 7.62528793,7.46546053 L7.62528793,7.46546053 Z" id="形状"></path>
            </g>
        </g>
    </g>
</svg>