<?xml version="1.0" encoding="UTF-8"?>
<svg width="16px" height="16px" viewBox="0 0 16 16" version="1.1" xmlns="http://www.w3.org/2000/svg" xmlns:xlink="http://www.w3.org/1999/xlink">
    <!-- Generator: Sketch 53.2 (72643) - https://sketchapp.com -->
    <title>Icon/Icon-00/43</title>
    <desc>Created with Sketch.</desc>
    <defs>
        <path d="M9,17 C4.581722,17 1,13.418278 1,9 C1,4.581722 4.581722,1 9,1 C13.418278,1 17,4.581722 17,9 C17,13.418278 13.418278,17 9,17 Z M9,15 C12.3137085,15 15,12.3137085 15,9 C15,5.6862915 12.3137085,3 9,3 C5.6862915,3 3,5.6862915 3,9 C3,12.3137085 5.6862915,15 9,15 Z M8.79289322,9.91421356 L12.3284271,6.37867966 L13.7426407,7.79289322 L10.2071068,11.3284271 L8.79289322,12.7426407 L5.25735931,9.20710678 L6.67157288,7.79289322 L8.79289322,9.91421356 Z" id="path-1"></path>
    </defs>
    <g id="Page-1" stroke="none" stroke-width="1" fill="none" fill-rule="evenodd">
        <g id="项目工程师需求" transform="translate(-584.000000, -363.000000)">
            <g id="Table-Content" transform="translate(198.000000, 181.000000)">
                <g id="Table" transform="translate(1.000000, 88.000000)">
                    <g id="-Content2" transform="translate(0.000000, 82.000000)">
                        <g id="Icon/Icon-00/43-2" transform="translate(384.000000, 11.000000)">
                            <mask id="mask-2" fill="white">
                                <use xlink:href="#path-1"></use>
                            </mask>
                            <use id="Mask" fill="#333333" fill-rule="nonzero" xlink:href="#path-1"></use>
                            <g id="Colors/#Green" mask="url(#mask-2)" fill="#36B37E" fill-rule="evenodd">
                                <rect x="0" y="0" width="18" height="18"></rect>
                            </g>
                        </g>
                    </g>
                </g>
            </g>
        </g>
    </g>
</svg>