<svg xmlns="http://www.w3.org/2000/svg" width="30" height="30" viewBox="0 0 30 30">
  <g fill="none" fill-rule="evenodd">
    <rect width="30" height="30" fill="#D8D8D8" opacity=".013"/>
    <path fill="#2161FD" d="M29.6999457,18 C28.3101347,24.846721 22.2568737,30 15,30 C6.71572875,30 0,23.2842712 0,15 C0,7.74312627 5.15327904,1.68986535 12,0.300054347 L12,5.45780228 C7.94289305,6.73206592 5,10.5223582 5,15 C5,20.5228475 9.4771525,25 15,25 C19.4776418,25 23.2679341,22.057107 24.5421977,18 L29.6999457,18 Z M29.6999457,12 L24.5421977,12 C23.5653825,8.88993427 21.1100657,6.43461747 18,5.45780228 L18,0.300054347 C23.8773911,1.49310178 28.5068982,6.12260886 29.6999457,12 Z M15,20 C12.2385763,20 10,17.7614237 10,15 C10,12.2385763 12.2385763,10 15,10 C17.7614237,10 20,12.2385763 20,15 C20,17.7614237 17.7614237,20 15,20 Z"/>
  </g>
</svg>
