<svg xmlns="http://www.w3.org/2000/svg" xmlns:xlink="http://www.w3.org/1999/xlink" width="20" height="20" viewBox="0 0 20 20">
  <defs>
    <path id="图片-a" d="M3,12.4852814 L7.36396103,8.12132034 L8.77817459,9.53553391 L10.8994949,11.6568542 L13.0208153,9.53553391 L13.7279221,10.2426407 L16,12.5147186 L16,4 L3,4 L3,12.4852814 Z M3.3137085,15 L15.6568542,15 L13.0208153,12.363961 L12.3137085,13.0710678 L10.8994949,14.4852814 L7.36396103,10.9497475 L3.3137085,15 Z M2,2 L17,2 C17.5522847,2 18,2.44771525 18,3 L18,16 C18,16.5522847 17.5522847,17 17,17 L2,17 C1.44771525,17 1,16.5522847 1,16 L1,3 C1,2.44771525 1.44771525,2 2,2 Z M13.5,8 C12.6715729,8 12,7.32842712 12,6.5 C12,5.67157288 12.6715729,5 13.5,5 C14.3284271,5 15,5.67157288 15,6.5 C15,7.32842712 14.3284271,8 13.5,8 Z"/>
  </defs>
  <g fill="none" fill-rule="evenodd">
    <mask id="图片-b" fill="#fff">
      <use xlink:href="#图片-a"/>
    </mask>
    <use fill="#979797" fill-rule="nonzero" xlink:href="#图片-a"/>
    <g fill="#212736" mask="url(#图片-b)">
      <rect width="20" height="20"/>
    </g>
  </g>
</svg>
