<svg xmlns="http://www.w3.org/2000/svg" xmlns:xlink="http://www.w3.org/1999/xlink" width="20" height="20" viewBox="0 0 20 20">
  <defs>
    <path id="思维导图-a" d="M10,5 L10,4 L8,4 L8,5 L10,5 Z M12,4 L12,7 L10,7 L10,9 L8,9 L8,7 L6,7 L6,4 L6,2 L12,2 L12,4 Z M15,15 L13,15 L13,16 L15,16 L15,15 Z M15,13 L17,13 L17,16 L17,18 L11,18 L11,16 L11,13 L13,13 L13,11 L15,11 L15,13 Z M3,11 L3,9 L15,9 L15,11 L5,11 L5,13 L7,13 L7,16 L7,18 L1,18 L1,16 L1,13 L3,13 L3,11 Z M5,16 L5,15 L3,15 L3,16 L5,16 Z"/>
  </defs>
  <g fill="none" fill-rule="evenodd">
    <mask id="思维导图-b" fill="#fff">
      <use xlink:href="#思维导图-a"/>
    </mask>
    <use fill="#212736" transform="rotate(-90 9 10)" xlink:href="#思维导图-a"/>
  </g>
</svg>
