<svg xmlns="http://www.w3.org/2000/svg" xmlns:xlink="http://www.w3.org/1999/xlink" width="20" height="20" viewBox="0 0 20 20">
  <defs>
    <path id="无序-a" d="M6,3 L19,3 L19,5 L6,5 L6,3 Z M6,9 L19,9 L19,11 L6,11 L6,9 Z M6,15 L19,15 L19,17 L6,17 L6,15 Z M2.5,5.5 C1.67157288,5.5 1,4.82842712 1,4 C1,3.17157288 1.67157288,2.5 2.5,2.5 C3.32842712,2.5 4,3.17157288 4,4 C4,4.82842712 3.32842712,5.5 2.5,5.5 Z M2.5,11.5 C1.67157288,11.5 1,10.8284271 1,10 C1,9.17157288 1.67157288,8.5 2.5,8.5 C3.32842712,8.5 4,9.17157288 4,10 C4,10.8284271 3.32842712,11.5 2.5,11.5 Z M2.5,17.5 C1.67157288,17.5 1,16.8284271 1,16 C1,15.1715729 1.67157288,14.5 2.5,14.5 C3.32842712,14.5 4,15.1715729 4,16 C4,16.8284271 3.32842712,17.5 2.5,17.5 Z"/>
  </defs>
  <g fill="none" fill-rule="evenodd">
    <mask id="无序-b" fill="#fff">
      <use xlink:href="#无序-a"/>
    </mask>
    <use fill="#212736" xlink:href="#无序-a"/>
    <g fill="#212736" mask="url(#无序-b)">
      <rect width="20" height="20"/>
    </g>
  </g>
</svg>
