<svg xmlns="http://www.w3.org/2000/svg" xmlns:xlink="http://www.w3.org/1999/xlink" width="20" height="20" viewBox="0 0 20 20">
  <defs>
    <path id="有序-a" d="M6,3 L19,3 L19,5 L6,5 L6,3 Z M6,9 L19,9 L19,11 L6,11 L6,9 Z M6,15 L19,15 L19,17 L6,17 L6,15 Z M2.784,6 L2.784,2.778 L1.872,3.57 L1.872,2.52 L2.784,1.728 L3.768,1.728 L3.768,6 L2.784,6 Z M1.65,12 L1.65,11.112 L3.198,9.432 C3.34200072,9.27599922 3.414,9.12400074 3.414,8.976 C3.414,8.71199868 3.28600128,8.58 3.03,8.58 C2.91799944,8.58 2.82400038,8.61099969 2.748,8.673 C2.67199962,8.73500031 2.634,8.84199924 2.634,8.994 L1.65,8.994 C1.65,8.58999798 1.78199868,8.27200116 2.046,8.04 C2.31000132,7.80799884 2.63799804,7.692 3.03,7.692 C3.43400202,7.692 3.76299873,7.80799884 4.017,8.04 C4.27100127,8.27200116 4.398,8.58599802 4.398,8.982 C4.398,9.19400106 4.35900039,9.3699993 4.281,9.51 C4.20299961,9.6500007 4.06600098,9.82399896 3.87,10.032 L2.85,11.112 L4.398,11.112 L4.398,12 L1.65,12 Z M3.006,18.036 C2.60999802,18.036 2.27400138,17.9260011 1.998,17.706 C1.72199862,17.4859989 1.584,17.1500023 1.584,16.698 L2.568,16.698 C2.568,16.8420007 2.60899959,16.9529996 2.691,17.031 C2.77300041,17.1090004 2.87799936,17.148 3.006,17.148 C3.14200068,17.148 3.24899961,17.1110004 3.327,17.037 C3.40500039,16.9629996 3.444,16.8480008 3.444,16.692 C3.444,16.5599993 3.40200042,16.4520004 3.318,16.368 C3.23399958,16.2839996 3.12400068,16.242 2.988,16.242 L2.85,16.242 L2.85,15.39 L2.988,15.39 C3.12400068,15.39 3.22599966,15.3500004 3.294,15.27 C3.36200034,15.1899996 3.396,15.0960005 3.396,14.988 C3.396,14.8559993 3.35900037,14.7550003 3.285,14.685 C3.21099963,14.6149996 3.11800056,14.58 3.006,14.58 C2.89799946,14.58 2.80600038,14.6159996 2.73,14.688 C2.65399962,14.7600004 2.616,14.8579994 2.616,14.982 L1.632,14.982 C1.632,14.589998 1.76299869,14.2770012 2.025,14.043 C2.28700131,13.8089988 2.61399804,13.692 3.006,13.692 C3.40200198,13.692 3.7299987,13.8099988 3.99,14.046 C4.2500013,14.2820012 4.38,14.5859981 4.38,14.958 C4.38,15.1740011 4.3400004,15.3459994 4.26,15.474 C4.1799996,15.6020006 4.07200068,15.7079996 3.936,15.792 C4.08800076,15.8960005 4.20799956,16.0179993 4.296,16.158 C4.38400044,16.2980007 4.428,16.4859988 4.428,16.722 C4.428,17.1460021 4.29200136,17.4709989 4.02,17.697 C3.74799864,17.9230011 3.41000202,18.036 3.006,18.036 Z"/>
  </defs>
  <g fill="none" fill-rule="evenodd">
    <mask id="有序-b" fill="#fff">
      <use xlink:href="#有序-a"/>
    </mask>
    <use fill="#212736" xlink:href="#有序-a"/>
    <g fill="#212736" mask="url(#有序-b)">
      <rect width="20" height="20"/>
    </g>
  </g>
</svg>
