<?xml version="1.0" encoding="UTF-8"?>
<svg width="16px" height="17px" viewBox="0 0 16 17" version="1.1" xmlns="http://www.w3.org/2000/svg" xmlns:xlink="http://www.w3.org/1999/xlink">
    <!-- Generator: Sketch 53.2 (72643) - https://sketchapp.com -->
    <title>goutong</title>
    <desc>Created with Sketch.</desc>
    <g id="线索报告" stroke="none" stroke-width="1" fill="none" fill-rule="evenodd">
        <g id="克隆报告复制-2" transform="translate(-485.000000, -438.000000)" fill-rule="nonzero" stroke="#454C5C">
            <g id="goutong" transform="translate(487.000000, 439.000000)">
                <path d="M3.48947352,5.86751938 C3.36968256,6.40784723 3.52006193,7.16378723 3.95346473,7.89918325 C4.39321518,8.64540608 5.00011179,9.15897092 5.5530633,9.32525763 L5.88338722,9.09107994 C6.11875558,8.92352455 6.39164014,8.84364029 6.68253619,8.84364056 C7.85745235,8.84456595 9.51962839,10.4194378 10.0355106,11.7361701 C10.349092,12.5312663 10.2267596,13.2365901 9.7247651,13.6773465 L9.06430005,14.2618249 C8.41661218,14.8357105 7.50800746,15.0231799 6.68395235,14.7555215 C4.46903153,14.0403568 2.37010774,12.1836181 0.887640569,9.66856856 C-0.596663786,7.1500702 -1.19068622,4.43459081 -0.713822108,2.18733431 C-0.533611157,1.34191056 0.0914926704,0.659040892 0.921471035,0.394528851 L1.78618517,0.119481577 C1.92223018,0.0788147406 2.06014311,0.0581161005 2.20135591,0.0581161005 C2.95127119,0.0581160754 3.46965708,0.534632 3.90711076,1.25150007 C4.22253425,1.76831159 4.47838232,2.42316237 4.61971394,3.0675837 C4.8920516,4.30931465 4.73285727,5.31652168 3.85593266,5.70650821 L3.48947352,5.86751938 Z" id="路径" stroke-width="1.75043447"></path>
                <path d="M12.564952,8.05148936 C12.5364315,8.0512318 12.508111,8.04676938 12.4809328,8.03825059 C12.3458862,7.99269288 12.2726809,7.84909589 12.3162551,7.71522459 C12.7407202,6.44264776 12.6331756,5.07905438 12.013786,3.87697399 C11.4044895,2.6839802 10.3353484,1.78104097 9.04521948,1.3698818 C8.97970973,1.34882804 8.92548726,1.30281957 8.89465707,1.24212765 C8.86333461,1.18188994 8.85776832,1.11181957 8.87919753,1.04751774 C8.89997936,0.981907172 8.94691969,0.927417232 9.00926474,0.896531266 C9.07160979,0.865645299 9.14401659,0.861010237 9.20989712,0.883687948 C10.6345267,1.34241135 11.7960082,2.32340426 12.4782442,3.6452955 C13.1583374,4.95483296 13.2784979,6.47780722 12.8119684,7.87508274 C12.777516,7.98065126 12.6775486,8.05204294 12.564952,8.05148936 L12.564952,8.05148936 Z" id="路径" stroke-width="0.933333333" fill="#000000"></path>
                <path d="M9.79971193,7.16316785 C9.71638463,7.16277762 9.63823623,7.12329684 9.58930784,7.05687113 C9.54037946,6.99044542 9.52653123,6.90503056 9.55202333,6.82690308 C9.92943759,5.69035461 9.2972771,4.46312057 8.14285322,4.09111112 C8.05067929,4.06583914 7.9799959,3.99283259 7.95875208,3.90095906 C7.93750826,3.80908554 7.96912452,3.71313786 8.04109944,3.65105482 C8.11307436,3.58897178 8.21381906,3.57074954 8.30349795,3.60359338 C8.99125081,3.82329802 9.56121495,4.30475459 9.88641975,4.94070922 C10.2157115,5.57383111 10.2739266,6.31042612 10.0480727,6.98609929 C10.0130699,7.09194098 9.91274286,7.16346901 9.79971193,7.16316785 L9.79971193,7.16316785 Z" id="路径" stroke-width="0.933333333" fill="#000000"></path>
            </g>
        </g>
    </g>
</svg>