<?xml version="1.0" encoding="UTF-8"?>
<svg width="128px" height="32px" viewBox="0 0 128 32" version="1.1" xmlns="http://www.w3.org/2000/svg" xmlns:xlink="http://www.w3.org/1999/xlink">
    <!-- Generator: Sketch 50 (54983) - http://www.bohemiancoding.com/sketch -->
    <title>gear-logo@2x</title>
    <desc>Created with Sketch.</desc>
    <defs></defs>
    <g id="gear-logo" stroke="none" stroke-width="1" fill="none" fill-rule="evenodd">
        <g transform="translate(0.000000, 1.000000)">
            <g id="XMLID_325_" stroke-linecap="round" stroke-linejoin="round" transform="translate(35.000000, 4.000000)" stroke="#FFFFFF" stroke-width="1.5">
                <g id="XMLID_350_">
                    <path d="M11.36,0.06391185 L11.36,9.1793388" id="XMLID_357_"></path>
                    <path d="M4,2.36473829 L4,9.123416" id="XMLID_356_"></path>
                    <path d="M22.1270641,9.7991736 L0.127064054,9.7991736" id="XMLID_355_"></path>
                    <path d="M19.2815944,4.37465565 L11.7355974,4.37465565" id="XMLID_354_"></path>
                    <path d="M2.76686556,11.5256183 L2.76686556,19.8606061 C2.76686556,20.723416 3.45858195,21.4264463 4.30750661,21.4264463 L18.1025323,21.4264463 C18.951457,21.4264463 19.6431734,20.723416 19.6431734,19.8606061 L19.6431734,11.5256183" id="XMLID_353_"></path>
                    <path d="M11.3600006,10.1460055 C10.9984216,14.2283747 8.42636329,17.5757576 4.97564176,19.04573" id="XMLID_352_"></path>
                    <path d="M17.3322118,19.3093664 C15.3199459,16.7449036 10.9967185,13.0300275 10.9967185,13.0300275" id="XMLID_351_"></path>
                </g>
                <g id="XMLID_342_" transform="translate(25.000000, 0.000000)">
                    <path d="M0.841064246,3 L8.43422371,3" id="XMLID_349_"></path>
                    <path d="M4.64550439,0.0159779614 L1.55636188,9.46694215 C1.34413071,10.1220386 1.82361594,10.8090909 2.50747191,10.8090909 L8.33989874,10.8090909" id="XMLID_348_"></path>
                    <path d="M5,6.15151515 L5,21.5862259" id="XMLID_347_"></path>
                    <path d="M0.00786041352,18.9258953 C3.09700293,18.2548209 5.5258707,17.3600551 8.88226728,15.7862259" id="XMLID_346_"></path>
                    <path d="M8.50496743,6.7107438 C10.5486749,4.90523416 13.2840988,2.12506887 14.5732067,0.631129477 C14.9740878,0.167768595 15.6186417,0.175757576 16.0116623,0.639118457 C17.5916055,2.50055096 21.1838144,6.24738292 22.0720412,6.70275482" id="XMLID_345_"></path>
                    <path d="M19.863265,9.29118457 C17.7645346,11.200551 13.3312613,13.9966942 11.5626683,14.5" id="XMLID_344_"></path>
                    <path d="M11.4762037,6.93443526 L11.4762037,19.6608815 C11.4762037,20.5236915 12.1679201,21.2267218 13.0168448,21.2267218 L19.863265,21.2267218 C20.7121896,21.2267218 21.403906,20.5236915 21.403906,19.6608815 L21.403906,16.0179063" id="XMLID_343_"></path>
                </g>
                <g id="XMLID_335_" transform="translate(50.000000, 0.000000)">
                    <path d="M17.0728182,8.10082645 L4.6533648,8.10082645 C3.86732345,8.10082645 3.23062996,7.44573003 3.23062996,6.65482094 L3.23062996,1.45399449 C3.23062996,0.655096419 3.87518386,0.00798898072 4.6533648,0.00798898072 L16.7898433,0.00798898072 C17.7330929,0.00798898072 18.5034134,0.790909091 18.5034134,1.74958678 L18.5034134,6.65482094 C18.495553,7.44573003 17.8509991,8.10082645 17.0728182,8.10082645 Z" id="XMLID_341_"></path>
                    <path d="M3.22276954,4 L18.495553,4" id="XMLID_340_"></path>
                    <path d="M10.4386292,11.9035813 C9.11807968,13.3016529 4.81057307,17.7355372 0.620972668,18.4625344" id="XMLID_339_"></path>
                    <path d="M16.3889622,11.9035813 C15.2885043,13.4694215 10.2971417,19.9644628 4.9442001,21.4264463" id="XMLID_338_"></path>
                    <path d="M4.77913142,11.4002755 L18.2125781,11.4002755 C19.0615028,11.4002755 19.7532192,12.1033058 19.7532192,12.9661157 L19.7532192,19.2534435 C19.7532192,20.1162534 19.0615028,20.8192837 18.2125781,20.8192837 L14.2980922,20.8192837" id="XMLID_337_"></path>
                    <path d="M0.0707437217,14.492011 C2.7904468,12.862259 4.81057307,11.2245179 7.51455532,8.65206612" id="XMLID_336_"></path>
                </g>
                <g id="XMLID_330_" transform="translate(73.000000, 0.000000)">
                    <path d="M0.0550228946,6.35123967 C1.94938255,4.69752066 4.48043571,2.15702479 5.68307897,0.790909091 C6.05251841,0.367493113 6.64990984,0.375482094 7.01934927,0.798898072 C8.48138619,2.50055096 11.8142015,5.93581267 12.6316845,6.35123967" id="XMLID_334_"></path>
                    <path d="M4.61406274,14.1804408 L8.1984113,14.1804408 C9.04733596,14.1804408 9.73905235,13.4774105 9.73905235,12.6146006 L9.73905235,8.30853994 C9.73905235,7.44573003 9.04733596,6.74269972 8.1984113,6.74269972 L3.82802138,6.74269972 C2.97909672,6.74269972 2.28738033,7.44573003 2.28738033,8.30853994 L2.28738033,19.9325069 C2.28738033,20.4597796 2.65681977,20.9071625 3.14416541,20.9471074 C4.26820454,21.0509642 7.41236995,21.0190083 9.55040242,20.9950413 C10.3914667,20.9870523 11.0753226,20.292011 11.0753226,19.4292011 L11.0753226,17.0964187" id="XMLID_333_"></path>
                    <path d="M15,2.42865014 L15,16.9046832" id="XMLID_332_"></path>
                    <path d="M19.085084,0.00798898072 L19.085084,19.461157 C19.085084,20.3239669 18.3933676,21.0269972 17.544443,21.0269972 L14.2902318,21.0269972" id="XMLID_331_"></path>
                </g>
            </g>
            <g id="Group-2" fill="#FFFFFF">
                <path d="M29.8678287,17 C28.8900443,24.3387189 22.6061537,30 15,30 C6.71572875,30 0,23.2842712 0,15 C0,7.39384632 5.66128108,1.10995569 13,0.132171334 L13,6.22301642 C8.9920226,7.13247475 6,10.7168252 6,15 C6,19.9705627 10.0294373,24 15,24 C19.2831748,24 22.8675252,21.0079774 23.7769836,17 L29.8678287,17 Z M29.8678287,13 L23.7769836,13 C23.0134802,9.63524534 20.3647547,6.98651977 17,6.22301642 L17,0.132171334 C23.6844442,1.02278249 28.9772175,6.31555582 29.8678287,13 Z" id="Combined-Shape"></path>
                <circle id="Oval-12" cx="15" cy="15" r="5"></circle>
            </g>
        </g>
    </g>
</svg>