<svg xmlns="http://www.w3.org/2000/svg" xmlns:xlink="http://www.w3.org/1999/xlink" width="548" height="353" viewBox="0 0 548 353">
  <defs>
    <rect id="分组-2-b" width="180" height="230" x="0" y="0" rx="12"/>
    <filter id="分组-2-a" width="115.6%" height="112.2%" x="-7.8%" y="-4.3%" filterUnits="objectBoundingBox">
      <feOffset dy="4" in="SourceAlpha" result="shadowOffsetOuter1"/>
      <feGaussianBlur in="shadowOffsetOuter1" result="shadowBlurOuter1" stdDeviation="4"/>
      <feColorMatrix in="shadowBlurOuter1" values="0 0 0 0 0.148824232   0 0 0 0 0.29962576   0 0 0 0 0.667204484  0 0 0 0.157506556 0"/>
    </filter>
    <linearGradient id="分组-2-c" x1="50%" x2="50%" y1="100%" y2="0%">
      <stop offset="0%" stop-color="#09E3C3"/>
      <stop offset="100%" stop-color="#4CFCFF"/>
    </linearGradient>
    <rect id="分组-2-e" width="180" height="230" x="0" y="0" rx="12"/>
    <filter id="分组-2-d" width="115.6%" height="112.2%" x="-7.8%" y="-4.3%" filterUnits="objectBoundingBox">
      <feOffset dy="4" in="SourceAlpha" result="shadowOffsetOuter1"/>
      <feGaussianBlur in="shadowOffsetOuter1" result="shadowBlurOuter1" stdDeviation="4"/>
      <feColorMatrix in="shadowBlurOuter1" values="0 0 0 0 0.148824232   0 0 0 0 0.29962576   0 0 0 0 0.667204484  0 0 0 0.157506556 0"/>
    </filter>
    <linearGradient id="分组-2-f" x1="50%" x2="50%" y1="0%" y2="100%">
      <stop offset="0%" stop-color="#FFEA7D"/>
      <stop offset="100%" stop-color="#FFD42D"/>
    </linearGradient>
    <rect id="分组-2-h" width="230" height="300" x="0" y="0" rx="12"/>
    <filter id="分组-2-g" width="136.1%" height="130.3%" x="-18%" y="-13.8%" filterUnits="objectBoundingBox">
      <feMorphology in="SourceAlpha" operator="dilate" radius="2.5" result="shadowSpreadOuter1"/>
      <feOffset dy="8" in="shadowSpreadOuter1" result="shadowOffsetOuter1"/>
      <feGaussianBlur in="shadowOffsetOuter1" result="shadowBlurOuter1" stdDeviation="10"/>
      <feColorMatrix in="shadowBlurOuter1" result="shadowMatrixOuter1" values="0 0 0 0 0.148824232   0 0 0 0 0.29962576   0 0 0 0 0.667204484  0 0 0 0.0963723776 0"/>
      <feOffset in="SourceAlpha" result="shadowOffsetOuter2"/>
      <feGaussianBlur in="shadowOffsetOuter2" result="shadowBlurOuter2" stdDeviation="10"/>
      <feColorMatrix in="shadowBlurOuter2" result="shadowMatrixOuter2" values="0 0 0 0 0.149019608   0 0 0 0 0.298039216   0 0 0 0 0.666666667  0 0 0 0.0489783654 0"/>
      <feMerge>
        <feMergeNode in="shadowMatrixOuter1"/>
        <feMergeNode in="shadowMatrixOuter2"/>
      </feMerge>
    </filter>
    <linearGradient id="分组-2-i" x1="50%" x2="50%" y1="0%" y2="100%">
      <stop offset="0%" stop-color="#459AFF"/>
      <stop offset="100%" stop-color="#2161FD"/>
    </linearGradient>
  </defs>
  <g fill="none" fill-rule="evenodd" transform="translate(4 20)">
    <g transform="rotate(15 43.819 1407.693)">
      <use fill="#000" filter="url(#分组-2-a)" xlink:href="#分组-2-b"/>
      <use fill="#FFF" xlink:href="#分组-2-b"/>
      <g transform="translate(33 108)">
        <rect width="112" height="84" fill="#FFF" stroke="#EBEEF6" stroke-width="6" rx="4"/>
        <rect width="6" height="84" x="25" fill="#EBEEF6"/>
        <rect width="6" height="84" x="53" fill="#EBEEF6"/>
        <rect width="6" height="84" x="81" fill="#EBEEF6"/>
        <rect width="114" height="6" y="25" fill="#EBEEF6"/>
        <rect width="114" height="6" y="53" fill="#EBEEF6"/>
      </g>
      <rect width="40" height="48" x="30" y="30" fill="url(#分组-2-c)" rx="8"/>
    </g>
    <g transform="rotate(-15 316.181 40.457)">
      <use fill="#000" filter="url(#分组-2-d)" xlink:href="#分组-2-e"/>
      <use fill="#FFF" xlink:href="#分组-2-e"/>
      <g transform="translate(30 108)">
        <rect width="120" height="90" fill="#EBEEF6" rx="8"/>
        <path fill="#FFF" d="M43.5,43 L66.5,52.5 L99,21.5 L99,74 L21,74 L43.5,43 Z M30,34 C25.0294373,34 21,29.9705627 21,25 C21,20.0294373 25.0294373,16 30,16 C34.9705627,16 39,20.0294373 39,25 C39,29.9705627 34.9705627,34 30,34 Z"/>
      </g>
      <rect width="40" height="48" x="30" y="30" fill="url(#分组-2-f)" rx="8"/>
    </g>
    <g transform="translate(154.302)">
      <use fill="#000" filter="url(#分组-2-g)" xlink:href="#分组-2-h"/>
      <use fill="#FFF" xlink:href="#分组-2-h"/>
      <rect width="150" height="16" x="40" y="166" fill="#EBEEF6" rx="8"/>
      <rect width="150" height="16" x="40" y="212" fill="#EBEEF6" rx="8"/>
      <rect width="90" height="16" x="40" y="120" fill="#EBEEF6" rx="8"/>
      <rect width="50" height="60" x="40" y="30" fill="url(#分组-2-i)" rx="8"/>
    </g>
  </g>
</svg>
