<?xml version="1.0" encoding="UTF-8"?>
<svg width="95px" height="90px" viewBox="0 0 95 90" version="1.1" xmlns="http://www.w3.org/2000/svg" xmlns:xlink="http://www.w3.org/1999/xlink">
    <!-- Generator: Sketch 54 (76480) - https://sketchapp.com -->
    <title>1</title>
    <desc>Created with Sketch.</desc>
    <g id="线索报告" stroke="none" stroke-width="1" fill="none" fill-rule="evenodd">
        <g id="写报告复制-2" transform="translate(-478.000000, -124.000000)" fill-rule="nonzero">
            <g id="编组-15" transform="translate(479.000000, 131.000000)">
                <g id="编组-9" transform="translate(0.000000, 10.763441)">
                    <path d="M21.5616227,57.5208684 C21.9342156,57.5184524 23.6442267,57.5167711 25.9405194,57.5156012 M33.4862718,40.9177498 C33.2066818,40.3623036 32.9497551,39.7213321 32.8713538,39.3649778 C32.8018286,39.0525082 32.5466094,38.7938823 32.4418815,38.4822955 C32.2658683,37.9526862 31.9596052,37.6878815 31.3805217,37.6296245 C30.5735009,37.5413563 30.4863744,37.3303952 30.8014381,36.5651097 C30.8594381,36.3773957 30.9549611,36.2035016 31.0821792,36.0540367 C31.9930477,35.1404606 32.2834696,34.0318118 32.2746689,32.7748723 C32.2658683,31.6494525 32.6266954,30.68115 33.8095045,30.1974402 C34.1254483,30.0659205 34.441392,29.678423 34.5549205,29.3350597 C35.291536,27.2413374 35.7650116,25.1220174 34.5381993,23.020351 C34.4237907,22.8182168 34.3181828,22.5631216 34.3278635,22.3442164 C34.3806674,20.8436567 34.4237907,19.3369181 34.5381993,17.8425371 C34.6869305,15.8715077 34.5822026,13.9587353 33.5815673,12.1863094 C33.2295408,11.5684319 32.740224,11.254197 32.0291305,11.1491578 C31.5468542,11.0794259 31.0029732,10.8843531 30.6351055,10.5683529 C28.8195289,9.00424001 26.6976892,8.59997157 24.4183177,8.74120072 C22.3484019,8.86389354 20.4368981,9.6115254 18.5218739,10.3512131 C16.5505256,11.107966 15.2594684,12.4887752 14.6487024,14.4936407 C14.044097,16.4646702 14.1400241,18.4657108 14.4383666,20.4667514 C14.6231805,21.7025065 15.0174502,22.9117811 14.1743468,24.0548546 C14.1178989,24.1498344 14.0990546,24.2626061 14.1215428,24.3708548 C14.3318786,25.9446773 14.4990912,27.5290918 14.7965536,29.0861433 C14.9452848,29.8805573 15.480365,30.4225242 16.3577911,30.5637533 C16.5505256,30.5893511 16.821586,30.8982898 16.848868,31.1004241 C16.9896786,32.1649388 16.9975992,33.2382804 17.1736125,34.2930857 C17.2616191,34.822695 17.5502809,35.33112 17.8037399,35.8245393 C17.9876737,36.1846737 18.3044975,36.483903 18.4972321,36.8440373 C18.7154885,37.2306521 18.6987672,37.5651887 18.1196837,37.6093228 C17.6893313,37.6446301 17.4710748,37.925323 17.2783403,38.3154686 C16.9007919,39.0992904 16.4713196,39.8636932 16.0321665,40.6192692 C15.6986215,41.1912473 15.2084246,41.5257838 14.5422144,41.683784 C13.758103,41.8626013 12.9894302,42.1037469 12.2434814,42.4049353 C8.70121483,43.8189922 6.92524118,45.2436413 3.40497627,46.6938883 C2.75790565,46.9564449 2.13875398,47.2835007 1.55683716,47.6701348 C0.62748721,48.3047833 0.136410257,49.1653985 0.148731201,50.3711424 C0.167212594,52.7543844 0.0607245702,55.1376264 0,57.5208684 C4.21609842,57.5208684 7.81980835,57.5208684 10.8111298,57.5208684" id="形状" stroke="#2161FD" stroke-width="1.73591874" fill="#FFFFFF"></path>
                    <path d="M64.2521226,57.5208684 C64.6247154,57.5184524 66.3347265,57.5167711 68.6310193,57.5156012 M76.1767717,40.9177498 C75.8971816,40.3623036 75.640255,39.7213321 75.5618537,39.3649778 C75.4923284,39.0525082 75.2371093,38.7938823 75.1323814,38.4822955 C74.9563681,37.9526862 74.6501051,37.6878815 74.0710215,37.6296245 C73.2640007,37.5413563 73.1768742,37.3303952 73.4919379,36.5651097 C73.5499379,36.3773957 73.6454609,36.2035016 73.772679,36.0540367 C74.6835476,35.1404606 74.9739694,34.0318118 74.9651688,32.7748723 C74.9563681,31.6494525 75.3171952,30.68115 76.5000043,30.1974402 C76.8159481,30.0659205 77.1318918,29.678423 77.2454204,29.3350597 C77.9820358,27.2413374 78.4555114,25.1220174 77.2286991,23.020351 C77.1142906,22.8182168 77.0086826,22.5631216 77.0183633,22.3442164 C77.0711673,20.8436567 77.1142906,19.3369181 77.2286991,17.8425371 C77.3774303,15.8715077 77.2727024,13.9587353 76.2720671,12.1863094 C75.9200407,11.5684319 75.4307238,11.254197 74.7196303,11.1491578 C74.237354,11.0794259 73.6934731,10.8843531 73.3256054,10.5683529 C71.5100288,9.00424001 69.3881891,8.59997157 67.1088175,8.74120072 C65.0389017,8.86389354 63.1273979,9.6115254 61.2123738,10.3512131 C59.2410254,11.107966 57.9499682,12.4887752 57.3392023,14.4936407 C56.7345968,16.4646702 56.830524,18.4657108 57.1288664,20.4667514 C57.3136804,21.7025065 57.70795,22.9117811 56.8648466,24.0548546 C56.8083987,24.1498344 56.7895544,24.2626061 56.8120426,24.3708548 C57.0223784,25.9446773 57.189591,27.5290918 57.4870534,29.0861433 C57.6357846,29.8805573 58.1708649,30.4225242 59.0482909,30.5637533 C59.2410254,30.5893511 59.5120858,30.8982898 59.5393679,31.1004241 C59.6801784,32.1649388 59.6880991,33.2382804 59.8641123,34.2930857 C59.952119,34.822695 60.2407807,35.33112 60.4942397,35.8245393 C60.6781735,36.1846737 60.9949974,36.483903 61.1877319,36.8440373 C61.4059884,37.2306521 61.3892671,37.5651887 60.8101835,37.6093228 C60.3798311,37.6446301 60.1615747,37.925323 59.9688402,38.3154686 C59.5912918,39.0992904 59.1618194,39.8636932 58.7226664,40.6192692 C58.3891213,41.1912473 57.8989244,41.5257838 57.2327142,41.683784 C56.4486028,41.8626013 55.67993,42.1037469 54.9339812,42.4049353 C51.3917147,43.8189922 49.615741,45.2436413 46.0954761,46.6938883 C45.4484055,46.9564449 44.8292538,47.2835007 44.247337,47.6701348 C43.317987,48.3047833 42.8269101,49.1653985 42.839231,50.3711424 C42.8577124,52.7543844 42.7512244,55.1376264 42.6904998,57.5208684 C46.9065983,57.5208684 50.5103082,57.5208684 53.5016296,57.5208684" id="形状" stroke="#2161FD" stroke-width="1.73591874" fill="#FFFFFF" transform="translate(67.520689, 33.117926) scale(-1, 1) translate(-67.520689, -33.117926) "></path>
                    <path d="M41.8293031,65.8236075 C42.3332455,65.820349 44.6460838,65.8180816 47.7518845,65.8165037 M53.2265525,65.8145262 C59.6580609,65.8128933 66.8691413,65.8128933 69.355556,65.8128933 L79.8336618,65.8128933 C79.7229625,62.7117518 79.5325122,59.6153721 79.6158342,56.5201828 C79.6753499,54.3023607 78.6540602,52.9619056 76.8876336,51.9785878 L76.8876336,51.9785878 C76.1862066,51.6072561 75.4613605,51.2819707 74.7176904,51.0047936 C72.2263623,50.0202853 69.7183699,49.0583958 67.2341837,48.0631734 C64.4702736,46.9715239 61.7218376,45.8179707 58.9317407,44.8239388 C58.448473,44.6513225 57.3319581,42.2704077 57.1260337,41.337089 C57.0319988,40.9156671 56.6868077,40.5668631 56.5451602,40.1466317 C56.3070973,39.4323572 55.8928679,39.07522 55.109641,38.9966498 C54.0181227,38.877604 53.9002816,38.5930847 54.3264142,37.5609581 C54.4048608,37.3077917 54.5340583,37.0732639 54.7061244,36.8716833 C55.9380999,35.6395599 56.3309036,34.1443454 56.3190005,32.449134 C56.3070973,30.9313009 56.7951262,29.6253691 58.3949088,28.9729984 C58.8222317,28.7956203 59.2495546,28.2730094 59.4031051,27.8099215 C60.3993983,24.9861565 61.0397874,22.1278683 59.3804892,19.2933892 C59.2257483,19.0207744 59.0829106,18.6767322 59.096004,18.3814988 C59.1674229,16.3577212 59.2257483,14.3256104 59.3804892,12.3101661 C59.5816523,9.65187466 59.4400049,7.07215346 58.0866174,4.681715 C57.6104917,3.8483948 56.9486768,3.42459196 55.9869028,3.2829275 C55.3346105,3.18888135 54.5989961,2.92579024 54.1014447,2.49960658 C51.6458261,0.390116035 48.775978,-0.155113441 45.6930637,0.0353597357 C42.8934442,0.200833304 40.3080813,1.20915076 37.7179571,2.20675401 C35.0516528,3.22737282 33.3054615,5.08964503 32.4793833,7.79357064 C31.6616373,10.4518621 31.7913816,13.150629 32.1948982,15.849396 C32.4448642,17.5160363 32.9781251,19.146963 31.8378039,20.6886053 C31.7614565,20.8167029 31.7359691,20.968796 31.766385,21.1147891 C32.0508701,23.2373746 32.2770299,25.3742457 32.6793562,27.4742125 C32.8805193,28.5456242 33.6042304,29.276565 34.7909739,29.4670382 C35.0516528,29.5015615 35.4182696,29.9182216 35.4551694,30.1908363 C35.6456197,31.6265279 35.6563325,33.0741241 35.8943954,34.4967208 C36.0134269,35.2109952 36.40385,35.8966987 36.7466605,36.5621643 C36.9954362,37.047871 37.4239494,37.4514361 37.6846283,37.9371427 C37.9798263,38.458563 37.9572103,38.9097464 37.1739834,38.9692692 C36.5919197,39.0168876 36.2967217,39.395453 36.0360428,39.9216352 C35.5253979,40.9787613 34.9445245,42.0096975 34.3505576,43.028729 C33.8994284,43.8001454 33.2364233,44.2513288 32.3353553,44.4644207 C31.2748224,44.7055884 30.2351708,45.0308171 29.226254,45.4370244 C24.4352385,47.3441371 22.033184,49.2655354 17.2719263,51.2214569 C16.3967451,51.5755622 15.559325,52.0166565 14.772266,52.5381028 C13.515294,53.3940416 12.8510986,54.5547376 12.867763,56.1809024 C12.8927596,59.3951375 12.7487315,62.6093725 12.6665998,65.8236075 C22.4813853,65.8236075 29.8424743,65.8236075 34.7498671,65.8236075" id="形状" stroke="#2161FD" stroke-width="0.867959372" fill="#FFFFFF"></path>
                    <path d="M44.4329692,65.8039902 C44.8777605,65.8007317 46.9191254,65.7984643 49.6603774,65.7968864 M55.1258277,66.2273074 C60.5664888,66.2257075 66.6666201,66.2257075 68.7699743,66.2257075 L79.8337027,65.8344653 C79.740058,62.7959894 79.7632174,59.8209968 79.8337027,56.7883529 C79.8840494,54.6153469 77.9444762,51.9291242 75.9489838,51.9291242 L74.9271188,51.0047936 C73.6323788,49.6511678 73.8814366,50.8063898 73.2523373,50.5348137 C71.1448267,49.5701996 68.9593503,49.1957296 67.3271224,48.2002839 C65.6948945,47.2048382 62.6919309,46.2825745 60.3316802,45.3086293 C59.9228655,45.1395011 58.5987487,43.1589513 58.4245493,42.2444925 C58.3450016,41.8315863 58.0529911,41.4898307 57.933166,41.078091 C57.7317794,40.3782501 58.1234764,39.5410182 57.4609145,39.4640358 C56.537557,39.3473956 55.2138722,39.4941976 55.5743542,38.4829274 C55.6407152,38.2348768 55.0628323,37.566056 55.5743542,37.566056 C56.6165298,36.3588304 57.4709838,35.0112645 57.4609145,33.3503088 C57.4508452,31.8631469 57.8838263,29.8953494 59.2371441,29.2561614 C59.5986331,29.0823676 60.2017859,28.6836158 60.3316802,28.2298857 C61.1744831,25.4631813 61.7353447,23.4234377 60.3316802,20.6462357 C60.200779,20.3791298 60.079947,20.0420397 60.0910233,19.7527722 C60.1514392,17.7698896 60.200779,15.7788422 60.3316802,13.8041245 C60.5018519,11.1995499 60.3820269,8.67195785 59.2371441,6.32982363 C58.834371,5.51334257 58.2745163,5.09810363 57.4609145,4.95930182 C56.9091153,4.86715609 56.2868307,4.60938133 55.8659327,4.19180968 C53.7886302,2.12494619 51.3609149,1.59073432 48.7529587,1.77735855 C46.3846524,1.93948835 44.1975942,2.92743046 42.0065081,3.90487487 C39.7509784,4.90486975 38.2738078,6.72951052 37.5749964,9.37879716 C36.8832335,11.9833718 36.9929892,14.627604 37.3343394,17.2718362 C37.5457954,18.9047983 37.9969013,20.5027684 37.0322596,22.0132583 C36.9676744,22.1387674 36.9461136,22.2877872 36.9718436,22.4308301 C37.2125005,24.510524 37.4038178,26.6042147 37.7441611,28.6617469 C37.9143328,29.7115083 38.526548,30.4276788 39.5304601,30.614303 C39.7509784,30.6481287 40.0611137,31.0563692 40.0923287,31.3234751 C40.2534379,32.7301553 40.2625003,34.1484996 40.4638869,35.5423494 C40.5645802,36.2421903 40.8948543,36.9140376 41.1848509,37.566056 C41.3952998,38.0419478 41.7577957,38.4373579 41.978314,38.9132498 C42.2280334,39.4241336 42.2089017,39.8661998 41.5463398,39.9245199 C41.0539496,39.971176 40.8042302,40.3420916 40.5837119,40.8576411 C40.1517377,41.8934056 39.6603544,42.9035093 39.1578949,43.9019491 C38.7762674,44.6577772 38.2154057,45.0998434 37.4531575,45.3086293 C36.5560118,45.5449236 35.6765304,45.8635803 34.8230487,46.2615793 C30.7701438,48.1301545 28.7381531,50.0127265 24.7104215,51.9291242 C23.9700719,52.276074 23.2616659,52.708255 22.5958624,53.2191643 C21.5325412,54.0578069 21.247677,55.2200746 20.9847697,56.7883529 C20.4804546,59.7966629 19.711158,63.0764234 19.6416796,66.2257075 C27.9443854,66.2257075 35.3443333,66.2362051 39.4956862,66.2362051" id="形状" fill="#C8D9FE"></path>
                    <path d="M41.8293031,65.8236075 C42.3332455,65.820349 44.6460838,65.8180816 47.7518845,65.8165037 M53.2265525,65.8145262 C59.6580609,65.8128933 66.8691413,65.8128933 69.355556,65.8128933 L79.8336618,65.8128933 C79.7229625,62.7117518 79.5325122,59.6153721 79.6158342,56.5201828 C79.6753499,54.3023607 78.6540602,52.9619056 76.8876336,51.9785878 L76.8876336,51.9785878 C76.1862066,51.6072561 75.4613605,51.2819707 74.7176904,51.0047936 C72.2263623,50.0202853 69.7183699,49.0583958 67.2341837,48.0631734 C64.4702736,46.9715239 61.7218376,45.8179707 58.9317407,44.8239388 C58.448473,44.6513225 57.3319581,42.2704077 57.1260337,41.337089 C57.0319988,40.9156671 56.6868077,40.5668631 56.5451602,40.1466317 C56.3070973,39.4323572 55.8928679,39.07522 55.109641,38.9966498 C54.0181227,38.877604 53.9002816,38.5930847 54.3264142,37.5609581 C54.4048608,37.3077917 54.5340583,37.0732639 54.7061244,36.8716833 C55.9380999,35.6395599 56.3309036,34.1443454 56.3190005,32.449134 C56.3070973,30.9313009 56.7951262,29.6253691 58.3949088,28.9729984 C58.8222317,28.7956203 59.2495546,28.2730094 59.4031051,27.8099215 C60.3993983,24.9861565 61.0397874,22.1278683 59.3804892,19.2933892 C59.2257483,19.0207744 59.0829106,18.6767322 59.096004,18.3814988 C59.1674229,16.3577212 59.2257483,14.3256104 59.3804892,12.3101661 C59.5816523,9.65187466 59.4400049,7.07215346 58.0866174,4.681715 C57.6104917,3.8483948 56.9486768,3.42459196 55.9869028,3.2829275 C55.3346105,3.18888135 54.5989961,2.92579024 54.1014447,2.49960658 C51.6458261,0.390116035 48.775978,-0.155113441 45.6930637,0.0353597357 C42.8934442,0.200833304 40.3080813,1.20915076 37.7179571,2.20675401 C35.0516528,3.22737282 33.3054615,5.08964503 32.4793833,7.79357064 C31.6616373,10.4518621 31.7913816,13.150629 32.1948982,15.849396 C32.4448642,17.5160363 32.9781251,19.146963 31.8378039,20.6886053 C31.7614565,20.8167029 31.7359691,20.968796 31.766385,21.1147891 C32.0508701,23.2373746 32.2770299,25.3742457 32.6793562,27.4742125 C32.8805193,28.5456242 33.6042304,29.276565 34.7909739,29.4670382 C35.0516528,29.5015615 35.4182696,29.9182216 35.4551694,30.1908363 C35.6456197,31.6265279 35.6563325,33.0741241 35.8943954,34.4967208 C36.0134269,35.2109952 36.40385,35.8966987 36.7466605,36.5621643 C36.9954362,37.047871 37.4239494,37.4514361 37.6846283,37.9371427 C37.9798263,38.458563 37.9572103,38.9097464 37.1739834,38.9692692 C36.5919197,39.0168876 36.2967217,39.395453 36.0360428,39.9216352 C35.5253979,40.9787613 34.9445245,42.0096975 34.3505576,43.028729 C33.8994284,43.8001454 33.2364233,44.2513288 32.3353553,44.4644207 C31.2748224,44.7055884 30.2351708,45.0308171 29.226254,45.4370244 C24.4352385,47.3441371 22.033184,49.2655354 17.2719263,51.2214569 C16.3967451,51.5755622 15.559325,52.0166565 14.772266,52.5381028 C13.515294,53.3940416 12.8510986,54.5547376 12.867763,56.1809024 C12.8927596,59.3951375 12.7487315,62.6093725 12.6665998,65.8236075 C22.4813853,65.8236075 29.8424743,65.8236075 34.7498671,65.8236075" id="形状" stroke="#2161FD" stroke-width="1.73591874" stroke-linecap="round"></path>
                </g>
                <path d="M72.6387061,6.77889785 L70.6417215,6.77889785 L70.6417215,4.77368952 C70.6417215,4.24004536 70.2068942,3.80342742 69.6754386,3.80342742 C69.143983,3.80342742 68.7091557,4.24004536 68.7091557,4.77368952 L68.7091557,6.77889785 L66.7121711,6.77889785 C66.1807155,6.77889785 65.7458882,7.21551579 65.7458882,7.74915995 C65.7458882,8.2828041 66.1807155,8.71942204 66.7121711,8.71942204 L68.7091557,8.71942204 L68.7091557,10.7246304 C68.7091557,11.2582745 69.143983,11.6948925 69.6754386,11.6948925 C70.2068942,11.6948925 70.6417215,11.2582745 70.6417215,10.7246304 L70.6417215,8.71942204 L72.6387061,8.71942204 C73.1701617,8.71942204 73.604989,8.2828041 73.604989,7.74915995 C73.604989,7.21551579 73.1701617,6.77889785 72.6387061,6.77889785 Z" id="形状" fill="#C8D9FE"></path>
                <path d="M44.5263158,1.69795881 C44.5263158,2.63571549 45.2834001,3.39591748 46.2173109,3.39591748 C47.1512216,3.39591748 47.9083059,2.63571549 47.9083059,1.69795881 C47.908306,1.09133657 47.5860041,0.530794486 47.0628084,0.227483351 C46.5396127,-0.0758277837 45.895009,-0.0758277837 45.3718133,0.227483351 C44.8486176,0.530794486 44.5263157,1.09133657 44.5263158,1.69795881 L44.5263158,1.69795881 Z" id="路径" fill="#C8D9FE"></path>
                <path d="M4.94736842,41.1779234 C4.9473684,41.986753 5.37710418,42.7341424 6.07469845,43.1385572 C6.77229271,43.5429721 7.6317643,43.5429721 8.32935857,43.1385572 C9.02695284,42.7341424 9.45668862,41.986753 9.4566886,41.1779234 C9.4566886,39.9275811 8.44724289,38.9139785 7.20202851,38.9139785 C5.95681413,38.9139785 4.94736842,39.9275811 4.94736842,41.1779234 L4.94736842,41.1779234 Z" id="路径" fill="#C8D9FE"></path>
                <path d="M13.6439145,14.9808468 C11.1154742,14.9808468 9.07017544,12.9109543 9.07017544,10.3882728 C9.07017544,7.84942036 11.1315789,5.79569892 13.6439145,5.79569892 C16.15625,5.79569892 18.2176535,7.8655914 18.2176535,10.3882728 C18.2176535,12.9109543 16.1723547,14.9808468 13.6439145,14.9808468 Z M13.6439145,8.04347278 C12.3555373,8.04347278 11.3248355,9.09459005 11.3248355,10.3721018 C11.3248355,11.6657846 12.371642,12.7169019 13.6439145,12.7169019 C14.916187,12.7169019 15.9790981,11.6657846 15.9790981,10.3721018 C15.9790981,9.09459005 14.9322917,8.04347278 13.6439145,8.04347278 Z" id="形状" fill="#C8D9FE"></path>
                <path d="M84.224438,16.6011845 C83.9828673,16.358619 83.5802495,16.358619 83.3386787,16.6011845 C83.2259457,16.7143817 83.1615269,16.8760921 83.1615269,17.0378024 C83.1615269,17.1995128 83.2259457,17.3612231 83.3386787,17.4744204 L85.3356634,19.4796287 C85.4483964,19.5928259 85.6094435,19.6575101 85.7704907,19.6575101 C85.9315378,19.6575101 86.092585,19.5928259 86.205318,19.4796287 C86.4468887,19.2370632 86.4468887,18.8327873 86.205318,18.5902218 L84.224438,16.6011845 Z M89.5067845,21.9052839 C89.3940515,21.7920867 89.2330044,21.7274026 89.0719572,21.7274026 C88.9109101,21.7274026 88.7498629,21.7920867 88.6371299,21.9052839 C88.3955592,22.1478495 88.3955592,22.5521253 88.6371299,22.7946909 L90.6341146,24.7998992 C90.7468476,24.9130964 90.9078947,24.9777806 91.0689419,24.9777806 C91.229989,24.9777806 91.3910362,24.9130964 91.5037692,24.7998992 C91.6165022,24.6867019 91.6809211,24.5249916 91.6809211,24.3632812 C91.6809211,24.2015709 91.6165022,24.0398606 91.5037692,23.9266633 L89.5067845,21.9052839 L89.5067845,21.9052839 Z M89.0558525,19.6736811 C89.2168997,19.6736811 89.3779468,19.608997 89.4906798,19.4957997 L91.4876645,17.4905914 C91.6003975,17.3773942 91.6648163,17.2156838 91.6648163,17.0539735 C91.6648163,16.8922631 91.6003975,16.7305528 91.4876645,16.6173555 C91.2460937,16.37479 90.8434759,16.37479 90.6019052,16.6173555 L88.6049205,18.6225638 C88.3633498,18.8651294 88.3633498,19.2694052 88.6049205,19.5119708 C88.7337582,19.608997 88.8948054,19.6736811 89.0558525,19.6736811 Z M85.3356634,21.9052839 L83.3386787,23.9104923 C83.2259457,24.0236895 83.1615269,24.1853999 83.1615269,24.3471102 C83.1615269,24.5088206 83.2259457,24.6705309 83.3386787,24.7837282 C83.4514117,24.8969254 83.6124589,24.9616095 83.773506,24.9616095 C83.9345532,24.9616095 84.0956003,24.8969254 84.2083333,24.7837282 L86.205318,22.7785198 C86.4468887,22.5359543 86.4468887,22.1316784 86.205318,21.8891129 C85.979852,21.6627184 85.5772341,21.6627184 85.3356634,21.9052839 L85.3356634,21.9052839 Z M85.7221765,20.6924563 C85.7221765,20.3528646 85.4483964,20.061786 85.0940927,20.061786 L82.2596628,20.061786 C81.9214638,20.061786 81.6315789,20.3366935 81.6315789,20.6924563 C81.6315789,21.0320481 81.9053591,21.3231267 82.2596628,21.3231267 L85.0940927,21.3231267 C85.4483964,21.3231267 85.7221765,21.0320481 85.7221765,20.6924563 Z M92.5666804,20.061786 L89.7322505,20.061786 C89.3940515,20.061786 89.1041667,20.3366935 89.1041667,20.6924563 C89.1041667,21.0320481 89.3779468,21.3231267 89.7322505,21.3231267 L92.5666804,21.3231267 C92.9048794,21.3231267 93.1947643,21.0482191 93.1947643,20.6924563 C93.1947643,20.3528646 92.9209841,20.061786 92.5666804,20.061786 Z M87.4292763,14.9032258 C87.0910773,14.9032258 86.8011924,15.1781334 86.8011924,15.5338962 L86.8011924,18.3799983 C86.8011924,18.7195901 87.0749726,19.0106687 87.4292763,19.0106687 C87.7674753,19.0106687 88.0573602,18.7357611 88.0573602,18.3799983 L88.0573602,15.5338962 C88.0412555,15.1781334 87.7674753,14.9032258 87.4292763,14.9032258 Z M87.4292763,22.390415 C87.0910773,22.390415 86.8011924,22.6653226 86.8011924,23.0210853 L86.8011924,25.8671875 C86.8011924,26.2067792 87.0749726,26.4978579 87.4292763,26.4978579 C87.7674753,26.4978579 88.0573602,26.2229503 88.0573602,25.8671875 L88.0573602,23.0210853 C88.0412555,22.6814936 87.7674753,22.390415 87.4292763,22.390415 Z" id="形状" fill="#C8D9FE"></path>
            </g>
        </g>
    </g>
</svg>