<?xml version="1.0" encoding="UTF-8"?>
<svg width="120px" height="90px" viewBox="0 0 120 90" version="1.1" xmlns="http://www.w3.org/2000/svg" xmlns:xlink="http://www.w3.org/1999/xlink">
    <!-- Generator: Sketch 54 (76480) - https://sketchapp.com -->
    <title>3</title>
    <desc>Created with Sketch.</desc>
    <g id="线索报告" stroke="none" stroke-width="1" fill="none" fill-rule="evenodd">
        <g id="写报告复制-2" transform="translate(-618.000000, -104.000000)">
            <g id="编组-17" transform="translate(618.000000, 104.000000)">
                <path d="M118.366071,52.9038471 L116.290179,52.9038471 L116.290179,50.8216714 C116.290179,50.267544 115.83817,49.814167 115.285714,49.814167 C114.733259,49.814167 114.28125,50.267544 114.28125,50.8216714 L114.28125,52.9038471 L112.205357,52.9038471 C111.652902,52.9038471 111.200893,53.357224 111.200893,53.9113514 C111.200893,54.4654788 111.652902,54.9188558 112.205357,54.9188558 L114.28125,54.9188558 L114.28125,57.0010315 C114.28125,57.5551589 114.733259,58.0085359 115.285714,58.0085359 C115.83817,58.0085359 116.290179,57.5551589 116.290179,57.0010315 L116.290179,54.9188558 L118.366071,54.9188558 C118.918527,54.9188558 119.370536,54.4654788 119.370536,53.9113514 C119.370536,53.357224 118.918527,52.9038471 118.366071,52.9038471 Z" id="形状" fill="#C8D9FE" fill-rule="nonzero"></path>
                <path d="M8.57142857,54.2337528 C8.57142855,55.0736284 9.01814477,55.8497054 9.74330355,56.2696431 C10.4684623,56.6895809 11.3618948,56.6895809 12.0870536,56.2696431 C12.8122124,55.8497054 13.2589286,55.0736284 13.2589286,54.2337528 C13.2589286,52.9354178 12.209596,51.8829093 10.9151786,51.8829093 C9.62076119,51.8829093 8.57142857,52.9354178 8.57142857,54.2337528 L8.57142857,54.2337528 Z" id="路径" fill="#C8D9FE" fill-rule="nonzero"></path>
                <path d="M28,10 C25.7887324,10 24,8.1971831 24,6 C24,3.78873239 25.8028169,2 28,2 C30.1971831,2 32,3.8028169 32,6 C32,8.1971831 30.2112676,10 28,10 Z M28,3.95774648 C26.8732394,3.95774648 25.971831,4.87323944 25.971831,5.98591549 C25.971831,7.11267606 26.8873239,8.02816901 28,8.02816901 C29.1126761,8.02816901 30.0422535,7.11267606 30.0422535,5.98591549 C30.0422535,4.87323944 29.1267606,3.95774648 28,3.95774648 Z" id="形状" fill="#C8D9FE" fill-rule="nonzero"></path>
                <path d="M100.24234,1.46443515 C100.033426,1.25523013 99.6852368,1.25523013 99.4763231,1.46443515 C99.3788301,1.56206416 99.3231198,1.70153417 99.3231198,1.84100418 C99.3231198,1.9804742 99.3788301,2.11994421 99.4763231,2.21757322 L101.203343,3.94700139 C101.300836,4.0446304 101.440111,4.10041841 101.579387,4.10041841 C101.718663,4.10041841 101.857939,4.0446304 101.955432,3.94700139 C102.164345,3.73779637 102.164345,3.38912134 101.955432,3.17991632 L100.24234,1.46443515 Z M104.810585,6.0390516 C104.713092,5.94142259 104.573816,5.88563459 104.43454,5.88563459 C104.295265,5.88563459 104.155989,5.94142259 104.058496,6.0390516 C103.849582,6.24825662 103.849582,6.59693166 104.058496,6.80613668 L105.785515,8.53556485 C105.883008,8.63319386 106.022284,8.68898187 106.16156,8.68898187 C106.300836,8.68898187 106.440111,8.63319386 106.537604,8.53556485 C106.635097,8.43793584 106.690808,8.29846583 106.690808,8.15899582 C106.690808,8.0195258 106.635097,7.88005579 106.537604,7.78242678 L104.810585,6.0390516 L104.810585,6.0390516 Z M104.420613,4.11436541 C104.559889,4.11436541 104.699164,4.05857741 104.796657,3.9609484 L106.523677,2.23152022 C106.62117,2.13389121 106.67688,1.9944212 106.67688,1.85495119 C106.67688,1.71548117 106.62117,1.57601116 106.523677,1.47838215 C106.314763,1.26917713 105.966574,1.26917713 105.75766,1.47838215 L104.030641,3.20781032 C103.821727,3.41701534 103.821727,3.76569038 104.030641,3.9748954 C104.142061,4.05857741 104.281337,4.11436541 104.420613,4.11436541 Z M101.203343,6.0390516 L99.4763231,7.76847978 C99.3788301,7.86610879 99.3231198,8.0055788 99.3231198,8.14504881 C99.3231198,8.28451883 99.3788301,8.42398884 99.4763231,8.52161785 C99.5738162,8.61924686 99.7130919,8.67503487 99.8523677,8.67503487 C99.9916435,8.67503487 100.130919,8.61924686 100.228412,8.52161785 L101.955432,6.79218968 C102.164345,6.58298466 102.164345,6.23430962 101.955432,6.0251046 C101.760446,5.82984658 101.412256,5.82984658 101.203343,6.0390516 L101.203343,6.0390516 Z M101.537604,4.9930265 C101.537604,4.70013947 101.300836,4.44909344 100.994429,4.44909344 L98.5431755,4.44909344 C98.2506964,4.44909344 98,4.68619247 98,4.9930265 C98,5.28591353 98.2367688,5.53695955 98.5431755,5.53695955 L100.994429,5.53695955 C101.300836,5.53695955 101.537604,5.28591353 101.537604,4.9930265 Z M107.456825,4.44909344 L105.005571,4.44909344 C104.713092,4.44909344 104.462396,4.68619247 104.462396,4.9930265 C104.462396,5.28591353 104.699164,5.53695955 105.005571,5.53695955 L107.456825,5.53695955 C107.749304,5.53695955 108,5.29986053 108,4.9930265 C108,4.70013947 107.763231,4.44909344 107.456825,4.44909344 Z M103.013928,0 C102.721448,0 102.470752,0.237099024 102.470752,0.543933054 L102.470752,2.9986053 C102.470752,3.29149233 102.707521,3.54253835 103.013928,3.54253835 C103.306407,3.54253835 103.557103,3.30543933 103.557103,2.9986053 L103.557103,0.543933054 C103.543175,0.237099024 103.306407,0 103.013928,0 Z M103.013928,6.45746165 C102.721448,6.45746165 102.470752,6.69456067 102.470752,7.0013947 L102.470752,9.45606695 C102.470752,9.74895397 102.707521,10 103.013928,10 C103.306407,10 103.557103,9.76290098 103.557103,9.45606695 L103.557103,7.0013947 C103.543175,6.70850767 103.306407,6.45746165 103.013928,6.45746165 Z" id="形状" fill="#C8D9FE" fill-rule="nonzero"></path>
                <g id="编组-14" transform="translate(0.000000, 5.278351)">
                    <g id="编组-13" transform="translate(0.000000, 13.755793)" fill="#C8D9FE">
                        <rect id="矩形" x="0" y="0" width="46.2857143" height="5.1584224" rx="2.57142857"></rect>
                        <rect id="矩形" x="8.57142857" y="12.0363189" width="29.1428571" height="5.1584224" rx="2.57142857"></rect>
                        <rect id="矩形" x="18" y="24.0726379" width="20.5714286" height="5.1584224" rx="2.57142857"></rect>
                        <rect id="矩形" transform="translate(96.857143, 2.579211) scale(-1, 1) translate(-96.857143, -2.579211) " x="73.7142857" y="0" width="46.2857143" height="5.1584224" rx="2.57142857"></rect>
                        <rect id="矩形" transform="translate(97.285714, 14.615530) scale(-1, 1) translate(-97.285714, -14.615530) " x="82.2857143" y="12.0363189" width="30" height="5.1584224" rx="2.57142857"></rect>
                        <rect id="矩形" transform="translate(93.857143, 26.651849) scale(-1, 1) translate(-93.857143, -26.651849) " x="84.8571429" y="24.0726379" width="18" height="5.1584224" rx="2.57142857"></rect>
                    </g>
                    <g id="zizhiyang" transform="translate(23.142857, 0.000000)" fill-rule="nonzero">
                        <path d="M37.3429976,-1.79856764 L37.3470111,-1.79856794 C54.6664805,-1.78053255 68.7005355,12.285559 68.7185252,29.6444628 C68.697966,46.9975466 54.6646619,61.0607947 37.3429979,61.078825 C20.0271684,61.0582191 5.99670163,46.9957241 5.97614713,29.6404679 C5.99413239,12.2873816 20.0253498,-1.77795668 37.3429976,-1.79856764 Z" id="路径" stroke="#FFFFFF" stroke-width="3.59713783" fill="#FFFFFF"></path>
                        <g id="编组-12" transform="translate(0.345879, 46.106867)">
                            <path d="M14.7185379,23.9043785 C14.3066568,22.7748997 13.1230008,22.149019 11.9824208,22.4576044 L6.57169361,23.9043785 L18.9323337,2.63467811 C23.6486645,7.99716466 25.8954641,8.75676349 32.8584681,9.92934747 L18.9323337,35.5681544 L14.7185379,23.9043785 Z" id="路径" fill="#C8D9FE"></path>
                            <path d="M61.3911198,22.4576044 C60.9792387,21.3281256 53.9763413,23.1671835 52.8357613,23.4757689 L49.0304797,23.9043785 L62.1738669,0.472577712 C66.8901978,5.83506427 68.3542502,8.75676349 75.3172542,9.92934747 L64.8025444,28.369191 L61.3911198,22.4576044 Z" id="路径" fill="#C8D9FE" transform="translate(62.173867, 14.420884) scale(-1, 1) translate(-62.173867, -14.420884) "></path>
                            <path d="M22.9783885,26.545333 C21.8807358,28.5504044 20.2342568,31.5580116 18.0389515,35.5681544 L13.8118282,23.9587944 L13.8118282,23.9587944 C13.3986444,22.8345851 12.2112447,22.2116244 11.0670573,22.5187701 L0,25.403277 L13.908599,0 C18.6398467,5.33746853 25.024105,8.88184875 32.0091318,10.0489622 C29.6390671,14.3783362 27.9726063,17.422444 27.0097492,19.1812857" id="路径" stroke="#2161FD" stroke-width="2.62867745" stroke-linecap="round"></path>
                            <path d="M64.250197,22.5187701 C63.1064905,22.2160282 61.9218798,22.8375257 61.505426,23.9587944 L57.2783028,35.5681544 L43.3609065,10.1515026 C50.3717291,9.12916769 56.8292775,5.71510738 61.6681769,0.472577712 L75.3172542,25.403277 L64.250197,22.5187701 L64.250197,22.5187701 Z" id="路径" stroke="#2161FD" stroke-width="2.62867745"></path>
                        </g>
                        <path d="M57.3121998,7.79241332 C57.9078634,8.33960065 58.4811139,8.91090265 59.0304123,9.50477677 M61.6544619,12.776202 C64.9688373,17.5634058 66.9134613,23.3753404 66.9199576,29.642332 C66.9005723,46.0045715 53.6701143,59.2632603 37.3451382,59.2802574 C21.0218789,59.2608326 7.79409566,46.0028534 7.77471508,29.642332 C7.7916734,13.2800896 21.0201647,0.0194295124 37.3451382,2.13162821e-14 C42.8686243,0.00575180604 48.0378159,1.5273719 52.4609087,4.17216162 L52.4609087,4.17216162" id="形状" stroke="#2161FD" stroke-width="2.62867745" fill="#FFFFFF" stroke-linecap="round"></path>
                        <polygon id="路径" stroke="#2161FD" stroke-width="2.62867745" fill="#C8D9FE" points="38.0045057 39.2811947 29.0662787 43.4721887 30.2692464 33.630916 23.5467798 26.3789836 33.2235935 24.4836933 38.000083 15.8080686 42.7809951 24.4836933 52.4622316 26.3745346 45.7353423 33.626467 46.9383101 43.4721887"></polygon>
                    </g>
                </g>
            </g>
        </g>
    </g>
</svg>